<svg xmlns="http://www.w3.org/2000/svg" width="12" height="12" viewBox="0 0 12 12">
  <path d="M6,0 C6.39620428,0 6.72364274,0.294421442 6.7754644,0.676413331 L6.7826087,0.782608696 L6.782,5.217 L11.2173913,5.2173913 C11.6496142,5.2173913 12,5.56777715 12,6 C12,6.39620428 11.7055786,6.72364274 11.3235867,6.7754644 L11.2173913,6.7826087 L6.782,6.782 L6.7826087,11.2173913 C6.7826087,11.6496142 6.43222285,12 6,12 C5.60379572,12 5.27635726,11.7055786 5.2245356,11.3235867 L5.2173913,11.2173913 L5.217,6.782 L0.782608696,6.7826087 C0.350385848,6.7826087 0,6.43222285 0,6 C0,5.60379572 0.294421442,5.27635726 0.676413331,5.2245356 L0.782608696,5.2173913 L5.217,5.217 L5.2173913,0.782608696 C5.2173913,0.350385848 5.56777715,0 6,0 Z"/>
</svg>
