<?xml version="1.0" encoding="UTF-8"?>
<svg width="16px" height="16px" viewBox="0 0 16 16" version="1.1" xmlns="http://www.w3.org/2000/svg" xmlns:xlink="http://www.w3.org/1999/xlink">
    <title>Approve icon</title>
    <g id="Approve-icon" stroke="none" stroke-width="1" fill="none" fill-rule="evenodd">
        <g fill="#2A5EC8" fill-rule="nonzero">
            <path d="M8,0.375 C3.78882878,0.375 0.375,3.78882878 0.375,8 C0.375,12.2111712 3.78882878,15.625 8,15.625 C12.2111712,15.625 15.625,12.2111712 15.625,8 C15.625,3.78882878 12.2111712,0.375 8,0.375 Z M8,1.625 C11.5208153,1.625 14.375,4.47918472 14.375,8 C14.375,11.5208153 11.5208153,14.375 8,14.375 C4.47918472,14.375 1.625,11.5208153 1.625,8 C1.625,4.47918472 4.47918472,1.625 8,1.625 Z" id="Oval"></path>
            <path d="M11.3165628,4.66930713 C11.5923175,4.36022431 12.0664221,4.33320658 12.3755049,4.60896134 C12.6564893,4.85964748 12.704362,5.27425906 12.5035653,5.57978969 L12.4358507,5.66790344 L7.38367363,11.3306929 C7.12310646,11.6227525 6.68813369,11.6613228 6.38212824,11.437538 L6.294499,11.362523 L3.59426258,8.6704087 C3.30092853,8.37795698 3.30021326,7.90308378 3.59266498,7.60974973 C3.85853019,7.34308241 4.27515694,7.3182488 4.56909624,7.53566077 L4.65332395,7.60815214 L6.792,9.74 L11.3165628,4.66930713 Z" id="Path-6"></path>
        </g>
    </g>
</svg>