<?xml version="1.0" encoding="UTF-8"?>
<svg width="17px" height="17px" viewBox="0 0 17 17" version="1.1" xmlns="http://www.w3.org/2000/svg" xmlns:xlink="http://www.w3.org/1999/xlink">
    <title>Assign</title>
    <g id="Assign" stroke="none" stroke-width="1" fill="none" fill-rule="evenodd">
        <circle id="Oval" fill="#2A5EC8" cx="8.5" cy="8.5" r="8.5"></circle>
        <g id="Group" transform="translate(8.783048, 8.222862) rotate(-315.000000) translate(-8.783048, -8.222862) translate(4.326277, 3.766091)" fill="#FFFFFF" fill-rule="nonzero">
            <path d="M3.31504171,1.30831322 L6.85650524,1.31424284 C7.23217116,1.31487184 7.54303235,1.59163876 7.59696772,1.95242252 L7.60524843,2.06298604 L7.6111384,5.58077073 C7.61183194,5.99498371 7.27660819,6.3313319 6.86239521,6.33202544 C6.48583795,6.33265592 6.17363177,6.05566882 6.11945799,5.69409797 L6.11114051,5.58328224 L6.10840289,3.85931322 L2.58273298,7.38555923 C2.28983976,7.67845245 1.81496602,7.67845245 1.52207281,7.38555923 C1.25358735,7.11707378 1.23121357,6.69567415 1.45495144,6.401703 L1.52207281,6.32489906 L5.03540289,2.81031322 L3.3125302,2.80831112 C2.93597295,2.80768064 2.62469605,2.52964961 2.57173336,2.16789938 L2.56378701,2.05705642 C2.56441749,1.68049916 2.84244852,1.36922227 3.20419875,1.31625957 L3.31504171,1.30831322 Z" id="Combined-Shape" transform="translate(4.456771, 4.456771) rotate(315.000000) translate(-4.456771, -4.456771) "></path>
        </g>
    </g>
</svg>