<svg xmlns="http://www.w3.org/2000/svg" width="18" height="18" viewBox="0 0 18 18">
  <path d="M17.125,14.25 C17.125,15.6997475 15.9497475,16.875 14.5,16.875 L14.5,16.875 L3.5,16.875 C2.05025253,16.875 0.875,15.6997475 0.875,14.25 L0.875,14.25 L0.875,5.25 C0.875,3.80025253 2.05025253,2.625 3.5,2.625 L3.5,2.625 L4.759,2.625 L4.75939941,1.75 C4.75939941,1.40482203 5.03922145,1.125 5.38439941,1.125 C5.69819757,1.125 5.95798255,1.35625788 6.00262281,1.65764208 L6.00939941,1.75 L6.009,2.625 L11.99,2.625 L11.9906006,1.75 C11.9906006,1.40482203 12.2704226,1.125 12.6156006,1.125 C12.9293987,1.125 13.1891837,1.35625788 13.233824,1.65764208 L13.2406006,1.75 L13.24,2.625 L14.5,2.625 C15.893988,2.625 17.0341899,3.71158703 17.1198356,5.08399087 L17.125,5.25 Z M15.875,7.875 L2.125,7.875 L2.125,14.25 C2.125,14.9647214 2.67031408,15.552078 3.36757832,15.6187056 L3.5,15.625 L14.5,15.625 C15.2593915,15.625 15.875,15.0093915 15.875,14.25 L15.875,14.25 L15.875,7.875 Z M4.759,3.875 L3.5,3.875 C2.74060847,3.875 2.125,4.49060847 2.125,5.25 L2.125,5.25 L2.125,6.625 L15.875,6.625 L15.875,5.25 C15.875,4.53527856 15.3296859,3.94792205 14.6324217,3.88129436 L14.5,3.875 L13.24,3.875 L13.2406006,4.75 C13.2406006,5.09517797 12.9607786,5.375 12.6156006,5.375 C12.3018024,5.375 12.0420175,5.14374212 11.9973772,4.84235792 L11.9906006,4.75 L11.99,3.875 L6.009,3.875 L6.00939941,4.75 C6.00939941,5.09517797 5.72957738,5.375 5.38439941,5.375 C5.07060126,5.375 4.81081628,5.14374212 4.76617602,4.84235792 L4.75939941,4.75 L4.759,3.875 Z"/>
</svg>
