<svg xmlns="http://www.w3.org/2000/svg" width="24" height="24" viewBox="0 0 24 24">
  <path fill-rule="evenodd" d="M5.79902436,14.3319864 L8.36274422,22.2245745 C8.44802651,22.4872178 8.30424695,22.7692673 8.04160358,22.8545496 C7.99173122,22.8707435 7.93962195,22.8789917 7.88718632,22.8789917 L6.32286606,22.8789917 C5.88954639,22.8789917 5.50552993,22.5999131 5.37173125,22.1877676 L2.82202436,14.3319864 L5.79902436,14.3319864 Z M17.7066105,1.76431896 C17.759562,1.84554437 17.7877541,1.94041353 17.7877541,2.03737444 L17.7877541,19.3298831 C17.7877541,19.6060254 17.5638965,19.8298831 17.2877541,19.8298831 C17.1907932,19.8298831 17.095924,19.8016909 17.0146986,19.7487395 L7.30312793,13.4173165 L7.30312793,7.94831653 L17.0146986,1.61851802 C17.2460266,1.46771364 17.5558062,1.53299095 17.7066105,1.76431896 Z M21.0832724,14.0223062 L22.9168134,15.8558471 C23.160891,16.0999248 23.160891,16.4956529 22.9168134,16.7397306 C22.6727357,16.9838083 22.2770076,16.9838083 22.0329299,16.7397306 L20.1993889,14.9061896 C19.9553112,14.662112 19.9553112,14.2663838 20.1993889,14.0223062 C20.4434666,13.7782285 20.8391947,13.7782285 21.0832724,14.0223062 Z M6.08612793,8.25031653 L6.08612793,13.1153165 L1.75912793,13.1162896 C1.20684318,13.1162896 0.759127929,12.6685744 0.759127929,12.1162896 L0.759127929,9.25096787 C0.759127929,8.69868312 1.20684318,8.25096787 1.75912793,8.25096787 L6.08612793,8.25031653 Z M23.2343492,10.2168967 C23.5795271,10.2168967 23.8593492,10.4967188 23.8593492,10.8418967 C23.8593492,11.1870747 23.5795271,11.4668967 23.2343492,11.4668967 L23.2343492,11.4668967 L20.6413306,11.4668967 C20.2961527,11.4668967 20.0163306,11.1870747 20.0163306,10.8418967 C20.0163306,10.4967188 20.2961527,10.2168967 20.6413306,10.2168967 L20.6413306,10.2168967 Z M22.0329299,4.94406286 C22.2770076,4.69998518 22.6727357,4.69998518 22.9168134,4.94406286 C23.160891,5.18814054 23.160891,5.58386866 22.9168134,5.82794634 L22.9168134,5.82794634 L21.0832724,7.66148732 C20.8391947,7.905565 20.4434666,7.905565 20.1993889,7.66148732 C19.9553112,7.41740963 19.9553112,7.02168152 20.1993889,6.77760384 L20.1993889,6.77760384 Z"/>
</svg>
