<svg xmlns="http://www.w3.org/2000/svg" width="24" height="24" viewBox="0 0 24 24">
  <path d="M8.91361421,21.9650246 C9.10549937,22.5559722 8.78199536,23.1905835 8.19104777,23.3824687 C8.07883497,23.418905 7.96158911,23.4374634 7.84360895,23.4374634 L6.29838439,23.4374634 C5.59423993,23.4374634 4.97021318,22.9839606 4.75279033,22.3142243 L1.96765084,13.7372231 L1.76565084,13.737339 C0.868188118,13.737339 0.140650837,13.0098017 0.140650837,12.112339 L0.140650837,9.27820334 C0.140650837,8.38074062 0.868188118,7.65320334 1.76565084,7.65320334 L6.62265084,7.65222311 L16.5707508,1.16792645 C17.0565397,0.851237256 17.6960934,0.95806816 18.0550797,1.39689584 L18.1275526,1.49597857 L18.1922902,1.60910874 C18.269529,1.76430623 18.3101257,1.93582375 18.3101257,2.1103534 L18.3101257,19.2801889 C18.3101257,19.9015093 17.806446,20.4051889 17.1851257,20.4051889 C16.9669636,20.4051889 16.753508,20.3417566 16.5707508,20.2226159 L6.62265084,13.7372231 L6.24165084,13.7372231 L8.91361421,21.9650246 Z M5.94170884,21.9282544 C5.99188335,22.0828089 6.13588952,22.1874634 6.29838439,22.1874634 L7.67159591,22.1874634 L4.92777643,13.737339 L3.28261423,13.737339 L5.94170884,21.9282544 Z M17.0601257,2.3410576 L7.43332042,8.61684044 L7.43332042,12.7737019 L17.0601257,19.0494847 L17.0601257,2.3410576 Z M21.0832724,14.0223062 L22.9168134,15.8558471 C23.160891,16.0999248 23.160891,16.4956529 22.9168134,16.7397306 C22.6727357,16.9838083 22.2770076,16.9838083 22.0329299,16.7397306 L20.1993889,14.9061896 C19.9553112,14.662112 19.9553112,14.2663838 20.1993889,14.0223062 C20.4434666,13.7782285 20.8391947,13.7782285 21.0832724,14.0223062 Z M6.18332042,8.90320334 L1.76565084,8.90320334 C1.55854406,8.90320334 1.39065084,9.07109656 1.39065084,9.27820334 L1.39065084,12.112339 C1.39065084,12.3194458 1.55854406,12.487339 1.76565084,12.487339 L6.18332042,12.487339 L6.18332042,8.90320334 Z M23.2343492,10.2168967 C23.5795271,10.2168967 23.8593492,10.4967188 23.8593492,10.8418967 C23.8593492,11.1870747 23.5795271,11.4668967 23.2343492,11.4668967 L23.2343492,11.4668967 L20.6413306,11.4668967 C20.2961527,11.4668967 20.0163306,11.1870747 20.0163306,10.8418967 C20.0163306,10.4967188 20.2961527,10.2168967 20.6413306,10.2168967 L20.6413306,10.2168967 Z M22.0329299,4.94406286 C22.2770076,4.69998518 22.6727357,4.69998518 22.9168134,4.94406286 C23.160891,5.18814054 23.160891,5.58386866 22.9168134,5.82794634 L22.9168134,5.82794634 L21.0832724,7.66148732 C20.8391947,7.905565 20.4434666,7.905565 20.1993889,7.66148732 C19.9553112,7.41740963 19.9553112,7.02168152 20.1993889,6.77760384 L20.1993889,6.77760384 Z"/>
</svg>
