<svg xmlns="http://www.w3.org/2000/svg" width="18" height="18" viewBox="0 0 18 18">
  <path  d="M14,1 C15.6568542,1 17,2.34314575 17,4 L17,14 C17,15.6568542 15.6568542,17 14,17 L4,17 C2.34314575,17 1,15.6568542 1,14 L1,4 C1,2.34314575 2.34314575,1 4,1 L14,1 Z M14,2 L4,2 C2.9456382,2 2.08183488,2.81587779 2.00548574,3.85073766 L2,4 L2,14 C2,15.0543618 2.81587779,15.9181651 3.85073766,15.9945143 L4,16 L14,16 C15.0543618,16 15.9181651,15.1841222 15.9945143,14.1492623 L16,14 L16,4 C16,2.9456382 15.1841222,2.08183488 14.1492623,2.00548574 L14,2 Z"/>
</svg>
