<svg xmlns="http://www.w3.org/2000/svg" width="24" height="24" viewBox="0 0 24 24">
  <path d="M13.8,0.975 C15.8020322,0.975 17.425,2.59796778 17.425,4.6 L17.425,5.774 L19.8,5.775 C21.8020322,5.775 23.425,7.39796778 23.425,9.4 L23.425,19.4 C23.425,21.4020322 21.8020322,23.025 19.8,23.025 L4.2,23.025 C2.19796778,23.025 0.575,21.4020322 0.575,19.4 L0.575,9.4 C0.575,7.39796778 2.19796778,5.775 4.2,5.775 L6.575,5.774 L6.575,4.6 C6.575,2.59796778 8.19796778,0.975 10.2,0.975 L13.8,0.975 Z M22.175,13.824 L15.024,13.824 L15.025,14 C15.025,14.8974627 14.2974627,15.625 13.4,15.625 L10.6,15.625 C9.70253728,15.625 8.975,14.8974627 8.975,14 L8.974,13.824 L1.825,13.824 L1.825,19.4 C1.825,20.7116763 2.88832372,21.775 4.2,21.775 L19.8,21.775 C21.1116763,21.775 22.175,20.7116763 22.175,19.4 L22.175,13.824 Z M13.4,12.025 L10.6,12.025 C10.3928932,12.025 10.225,12.1928932 10.225,12.4 L10.225,14 C10.225,14.2071068 10.3928932,14.375 10.6,14.375 L13.4,14.375 C13.6071068,14.375 13.775,14.2071068 13.775,14 L13.775,12.4 C13.775,12.1928932 13.6071068,12.025 13.4,12.025 Z M19.8,7.025 L4.2,7.025 C2.88832372,7.025 1.825,8.08832372 1.825,9.4 L1.825,12.574 L8.974,12.574 L8.975,12.4 C8.975,11.5025373 9.70253728,10.775 10.6,10.775 L13.4,10.775 C14.2974627,10.775 15.025,11.5025373 15.025,12.4 L15.024,12.574 L22.175,12.574 L22.175,9.4 C22.175,8.08832372 21.1116763,7.025 19.8,7.025 Z M13.8,2.225 L10.2,2.225 C8.88832372,2.225 7.825,3.28832372 7.825,4.6 L7.825,5.775 L16.175,5.775 L16.175,4.6 C16.175,3.28832372 15.1116763,2.225 13.8,2.225 Z"/>
</svg>
