<svg xmlns="http://www.w3.org/2000/svg" width="24" height="24" viewBox="0 0 24 24">
  <path fill-rule="evenodd" d="M8.95565014,13.9495616 C9.02821384,14.9062831 9.79114557,15.6701294 10.7474672,15.7441222 L10.9,15.75 L13.3,15.75 C14.3266334,15.75 15.167967,14.9566369 15.2443499,13.9495616 L22.8,13.95 L22.8,19.4 C22.8,21.0568542 21.4568542,22.4 19.8,22.4 L4.2,22.4 C2.54314575,22.4 1.2,21.0568542 1.2,19.4 L1.2,13.95 L8.95565014,13.9495616 Z M13.3,12.15 C13.5209139,12.15 13.7046475,12.3091876 13.7427499,12.5191119 L13.75,12.6 L13.75,13.8 C13.75,14.0209139 13.5908124,14.2046475 13.3808881,14.2427499 L13.3,14.25 L10.9,14.25 C10.6790861,14.25 10.4953525,14.0908124 10.4572501,13.8808881 L10.45,13.8 L10.45,12.6 C10.45,12.3790861 10.6091876,12.1953525 10.8191119,12.1572501 L10.9,12.15 L13.3,12.15 Z M19.8,6.4 C21.4568542,6.4 22.8,7.74314575 22.8,9.4 L22.8,12.45 L15.2442732,12.4494311 C15.1712493,11.4931639 14.408492,10.7298178 13.4524825,10.6558739 L13.3,10.65 L10.9,10.65 C9.87370888,10.65 9.03259408,11.4428341 8.95572681,12.4494311 L1.2,12.45 L1.2,9.4 C1.2,7.74314575 2.54314575,6.4 4.2,6.4 L19.8,6.4 Z M14.4,0.85 C16.139697,0.85 17.55,2.26030304 17.55,4 L17.55,4.899 L16.05,4.899 L16.05,4 C16.05,3.08873016 15.3112698,2.35 14.4,2.35 L9.6,2.35 C8.68873016,2.35 7.95,3.08873016 7.95,4 L7.95,4.899 L6.45,4.899 L6.45,4 C6.45,2.26030304 7.86030304,0.85 9.6,0.85 L14.4,0.85 Z"/>
</svg>
