<svg xmlns="http://www.w3.org/2000/svg" width="16" height="16" viewBox="0 0 16 16">
  <g fill="none" fill-rule="evenodd">
    <path  fill-rule="nonzero" d="M10.3314112,4.79894587 C10.5749964,4.63020081 10.9117769,4.65430725 11.1287348,4.87126519 C11.3728125,5.11534287 11.3728125,5.51107098 11.1287348,5.75514866 L11.1287348,5.75514866 L8.88320692,7.99920692 L11.1287348,10.2448513 C11.3728125,10.488929 11.3728125,10.8846571 11.1287348,11.1287348 C10.9117769,11.3456928 10.5749964,11.3697992 10.3314112,11.2010541 L10.2448513,11.1287348 L7.99920692,8.88320692 L5.75514866,11.1287348 L5.6685888,11.2010541 C5.42500363,11.3697992 5.08822313,11.3456928 4.87126519,11.1287348 C4.6271875,10.8846571 4.6271875,10.488929 4.87126519,10.2448513 L4.87126519,10.2448513 L7.11620692,7.99920692 L4.87126519,5.75514866 C4.6271875,5.51107098 4.6271875,5.11534287 4.87126519,4.87126519 C5.08822313,4.65430725 5.42500363,4.63020081 5.6685888,4.79894587 L5.75514866,4.87126519 L7.99920692,7.11620692 L10.2448513,4.87126519 Z"/>
    <path  fill-rule="nonzero" d="M8,0.375 C3.78882878,0.375 0.375,3.78882878 0.375,8 C0.375,12.2111712 3.78882878,15.625 8,15.625 C12.2111712,15.625 15.625,12.2111712 15.625,8 C15.625,3.78882878 12.2111712,0.375 8,0.375 Z M8,1.625 C11.5208153,1.625 14.375,4.47918472 14.375,8 C14.375,11.5208153 11.5208153,14.375 8,14.375 C4.47918472,14.375 1.625,11.5208153 1.625,8 C1.625,4.47918472 4.47918472,1.625 8,1.625 Z"/>
  </g>
</svg>
