<svg xmlns="http://www.w3.org/2000/svg" width="12" height="18" viewBox="0 0 12 18">
  <path d="M6.483,15.222 L6.483,14.074 C7.08966667,14.018 7.62166667,13.864 8.079,13.612 C8.53633333,13.36 8.891,13.0263333 9.143,12.611 C9.395,12.1956667 9.521,11.722 9.521,11.19 C9.521,10.518 9.28066667,9.96966667 8.8,9.545 C8.31933333,9.12033333 7.64966667,8.79133333 6.791,8.558 L6.791,8.558 L6.791,5.142 C7.17366667,5.226 7.51433333,5.37766667 7.813,5.597 C8.11166667,5.81633333 8.373,6.08933333 8.597,6.416 L8.597,6.416 L9.381,5.632 C9.11033333,5.22133333 8.76033333,4.87833333 8.331,4.603 C7.90166667,4.32766667 7.38833333,4.15266667 6.791,4.078 L6.791,4.078 L6.791,3 L5.769,3 L5.769,4.064 C5.22766667,4.11066667 4.74466667,4.25533333 4.32,4.498 C3.89533333,4.74066667 3.56166667,5.051 3.319,5.429 C3.07633333,5.807 2.955,6.23866667 2.955,6.724 C2.955,7.43333333 3.165,8.005 3.585,8.439 C4.005,8.873 4.63033333,9.202 5.461,9.426 L5.461,9.426 L5.461,12.996 C5.02233333,12.9213333 4.628,12.7603333 4.278,12.513 C3.928,12.2656667 3.585,11.9273333 3.249,11.498 L3.249,11.498 L2.479,12.338 C2.82433333,12.814 3.25133333,13.199 3.76,13.493 C4.26866667,13.787 4.83566667,13.9713333 5.461,14.046 L5.461,14.046 L5.461,15.222 L6.483,15.222 Z M5.769,8.278 C5.153,8.10066667 4.71666667,7.89066667 4.46,7.648 C4.20333333,7.40533333 4.075,7.088 4.075,6.696 C4.075,6.276 4.23133333,5.919 4.544,5.625 C4.85666667,5.331 5.265,5.156 5.769,5.1 L5.769,5.1 L5.769,8.278 Z M6.483,13.038 L6.483,9.678 C7.127,9.85533333 7.60766667,10.0746667 7.925,10.336 C8.24233333,10.5973333 8.401,10.952 8.401,11.4 C8.401,11.8386667 8.219,12.2073333 7.855,12.506 C7.491,12.8046667 7.03366667,12.982 6.483,13.038 L6.483,13.038 Z"/>
</svg>
