<svg xmlns="http://www.w3.org/2000/svg" width="15" height="15" viewBox="0 0 15 15">
  <g fill="none" fill-rule="evenodd">
    <path  fill-rule="nonzero" d="M10.0913179,1.02330781 L8.71744901,2.39717667 L2.98727398,2.39759152 C2.22866081,2.39759152 1.61368334,3.012569 1.61368334,3.77118217 L1.61368334,12.012726 C1.61368334,12.7713392 2.22866081,13.3863167 2.98727398,13.3863167 L11.2288178,13.3863167 C11.987431,13.3863167 12.6024085,12.7713392 12.6024085,12.012726 L12.60255,6.2822777 L13.9759991,4.90889448 L13.9759991,12.012726 C13.9759991,13.5299524 12.7460442,14.7599073 11.2288178,14.7599073 L2.98727398,14.7599073 C1.47004765,14.7599073 0.240092693,13.5299524 0.240092693,12.012726 L0.240092693,3.77118217 C0.240092693,2.25395584 1.47004765,1.02400088 2.98727398,1.02400088 L10.0913179,1.02330781 Z M13.8830999,3.0601726 L12.60255,4.33972718 L12.6024085,3.77118217 C12.6024085,3.012569 11.987431,2.39759152 11.2288178,2.39759152 L10.6599995,2.39717667 L11.9406005,1.11710675 C12.8860223,1.37001588 13.6304589,2.11464122 13.8830999,3.0601726 Z"/>
    <path  d="M9.8275006,-0.768928761 C10.5861138,-0.768928761 11.2010912,-0.153951282 11.2010912,0.604661882 L11.2010912,8.45176719 C11.2010912,8.55069343 11.17972,8.64845214 11.13844,8.73835407 L10.1395726,10.9137401 C10.0604338,11.0860927 9.85655978,11.1616575 9.68420716,11.0825187 C9.60957606,11.0482505 9.54969678,10.9883712 9.51542858,10.9137401 L8.51656124,8.73835407 C8.47528117,8.64845214 8.45390996,8.55069343 8.45390996,8.45176719 L8.45390996,0.604661882 C8.45390996,-0.153951282 9.06888743,-0.768928761 9.8275006,-0.768928761 Z" transform="rotate(45 9.828 5.172)"/>
  </g>
</svg>
