<svg xmlns="http://www.w3.org/2000/svg" width="20" height="20" viewBox="0 0 20 20">
  <g fill-rule="evenodd" transform="translate(1 1)">
    <path fill-rule="nonzero" d="M9,0 C4.02943725,0 0,4.02943725 0,9 C0,13.9705627 4.02943725,18 9,18 C13.9705627,18 18,13.9705627 18,9 C18,4.02943725 13.9705627,0 9,0 Z M9,1.54285714 C13.1184663,1.54285714 16.4571429,4.88153372 16.4571429,9 C16.4571429,13.1184663 13.1184663,16.4571429 9,16.4571429 C4.88153372,16.4571429 1.54285714,13.1184663 1.54285714,9 C1.54285714,4.88153372 4.88153372,1.54285714 9,1.54285714 Z"/>
    <circle cx="6.323" cy="7.25" r="1.5"/>
    <circle cx="11.677" cy="7.25" r="1.5"/>
    <path d="M12.3695632,11.0011275 C12.699762,11.0011275 12.939286,11.315528 12.8516189,11.6338765 C12.45211,13.0846266 10.8442732,14.0981445 9,14.0981445 C7.15572675,14.0981445 5.54788999,13.0846266 5.14838109,11.6338765 C5.06801959,11.342057 5.26258946,11.053555 5.54991303,11.0074979 L5.63043681,11.0011275 L12.3695632,11.0011275 Z"/>
  </g>
</svg>
