<svg xmlns="http://www.w3.org/2000/svg" width="12" height="12" viewBox="0 0 12 12">
  <g fill="none" fill-rule="evenodd">
    <path  fill-rule="nonzero" d="M1.22702923,1.22702923 C1.49329579,0.960762664 1.90995947,0.936556613 2.20357097,1.15441107 L2.2876894,1.22702923 L10.7729708,9.7123106 C11.065864,10.0052038 11.065864,10.4800776 10.7729708,10.7729708 C10.5067042,11.0392373 10.0900405,11.0634434 9.79642903,10.8455889 L9.7123106,10.7729708 L1.22702923,2.2876894 C0.934136008,1.99479618 0.934136008,1.51992245 1.22702923,1.22702923 Z"/>
    <path  fill-rule="nonzero" d="M9.7123106,1.22702923 C10.0052038,0.934136008 10.4800776,0.934136008 10.7729708,1.22702923 C11.0392373,1.49329579 11.0634434,1.90995947 10.8455889,2.20357097 L10.7729708,2.2876894 L2.2876894,10.7729708 C1.99479618,11.065864 1.51992245,11.065864 1.22702923,10.7729708 C0.960762664,10.5067042 0.936556613,10.0900405 1.15441107,9.79642903 L1.22702923,9.7123106 L9.7123106,1.22702923 Z"/>
  </g>
</svg>
