<svg xmlns="http://www.w3.org/2000/svg" width="18" height="18" viewBox="0 0 18 18">
  <g fill="none" fill-rule="evenodd">
    <path fill-rule="nonzero" d="M0.990383138,10.061451 C1.20734108,9.84449301 1.54412158,9.82038657 1.78770676,9.98913164 L1.87426661,10.061451 L5.43187033,13.6193927 L8.99038314,10.061451 C9.20734108,9.84449301 9.54412158,9.82038657 9.78770676,9.98913164 L9.87426661,10.061451 C10.0912246,10.2784089 10.115331,10.6151894 9.94658593,10.8587746 L9.87426661,10.9453344 L5.87426661,14.9453344 C5.65730868,15.1622924 5.32052817,15.1863988 5.076943,15.0176537 L4.99038314,14.9453344 L0.990383138,10.9453344 C0.746305456,10.7012567 0.746305456,10.3055286 0.990383138,10.061451 Z" transform="scale(-1 1) rotate(-45 0 25.618)"/>
    <path fill-rule="nonzero" d="M8.96785878,1.34285878 C9.28165694,1.34285878 9.54144192,1.57411666 9.58608218,1.87550086 L9.59285878,1.96785878 L9.59285878,15.9678588 C9.59285878,16.3130368 9.31303675,16.5928588 8.96785878,16.5928588 C8.65406063,16.5928588 8.39427565,16.3616009 8.34963539,16.0602167 L8.34285878,15.9678588 L8.34285878,1.96785878 C8.34285878,1.62268081 8.62268081,1.34285878 8.96785878,1.34285878 Z" transform="scale(-1 1) rotate(-45 0 30.618)"/>
  </g>
</svg>
