<svg xmlns="http://www.w3.org/2000/svg" width="18" height="18" viewBox="0 0 18 18">
  <g transform="scale(-1 1) rotate(-45 -.543 26.003)">
    <path d="M1.10351281,10.5580583 C1.32047075,10.3411003 1.65725125,10.3169939 1.90083642,10.4857389 L1.98739628,10.5580583 L5.545,14.116 L9.10351281,10.5580583 C9.32047075,10.3411003 9.65725125,10.3169939 9.90083642,10.4857389 L9.98739628,10.5580583 C10.2043542,10.7750162 10.2284607,11.1117967 10.0597156,11.3553819 L9.98739628,11.4419417 L5.98739628,15.4419417 C5.77043834,15.6588997 5.43365784,15.6830061 5.19007267,15.5142611 L5.10351281,15.4419417 L1.10351281,11.4419417 C0.859435125,11.1978641 0.859435125,10.8021359 1.10351281,10.5580583 Z"/>
    <path d="M5.54545455,0.375 C5.8592527,0.375 6.11903768,0.606257877 6.16367794,0.907642081 L6.17045455,1 L6.17045455,15 C6.17045455,15.345178 5.89063251,15.625 5.54545455,15.625 C5.23165639,15.625 4.97187141,15.3937421 4.92723115,15.0923579 L4.92045455,15 L4.92045455,1 C4.92045455,0.654822031 5.20027658,0.375 5.54545455,0.375 Z"/>
  </g>
</svg>
