<svg xmlns="http://www.w3.org/2000/svg" width="20" height="20" viewBox="0 0 20 20">
  <g transform="translate(.5 .5)">
    <path d="M4.05364522 6.4920558C4.34653844 6.19916259 4.82141217 6.19916259 5.11430539 6.4920558 5.38279084 6.76054126 5.40516463 7.18194089 5.18142675 7.47591204L5.11430539 7.55271598 2.67157288 9.99544849C1.10947571 11.5575457 1.10947571 14.0902056 2.67157288 15.6523027 4.18633376 17.1670636 6.61372666 17.2129655 8.18379858 15.7900083L8.32842712 15.6523027 10.7711596 13.2095702C11.0640529 12.916677 11.5389266 12.916677 11.8318198 13.2095702 12.1003053 13.4780557 12.1226791 13.8994553 11.8989412 14.1934265L11.8318198 14.2702304 9.3890873 16.7129629C7.24120369 18.8608465 3.75879631 18.8608465 1.6109127 16.7129629-.484583496 14.6174667-.53569316 11.2517516 1.45758371 9.09429347L1.6109127 8.93478832 4.05364522 6.4920558zM6.4920558 4.05364522C6.19916259 4.34653844 6.19916259 4.82141217 6.4920558 5.11430539 6.76054126 5.38279084 7.18194089 5.40516463 7.47591204 5.18142675L7.55271598 5.11430539 9.99544849 2.67157288C11.5575457 1.10947571 14.0902056 1.10947571 15.6523027 2.67157288 17.1670636 4.18633376 17.2129655 6.61372666 15.7900083 8.18379858L15.6523027 8.32842712 13.2095702 10.7711596C12.916677 11.0640529 12.916677 11.5389266 13.2095702 11.8318198 13.4780557 12.1003053 13.8994553 12.1226791 14.1934265 11.8989412L14.2702304 11.8318198 16.7129629 9.3890873C18.8608465 7.24120369 18.8608465 3.75879631 16.7129629 1.6109127 14.6174667-.484583496 11.2517516-.53569316 9.09429347 1.45758371L8.93478832 1.6109127 6.4920558 4.05364522z"/>
    <path d="M12.6186442,8.40977684 C13.0328578,8.40977684 13.3686442,8.74556328 13.3686442,9.15977684 C13.3686442,9.53947261 13.0864903,9.8532678 12.7204148,9.90293023 L12.6186442,9.90977684 L5.70955332,9.90977684 C5.29533976,9.90977684 4.95955332,9.57399041 4.95955332,9.15977684 C4.95955332,8.78008108 5.2417072,8.46628588 5.60778276,8.41662346 L5.70955332,8.40977684 L12.6186442,8.40977684 Z" transform="rotate(-45 9.164 9.16)"/>
  </g>
</svg>
