<svg xmlns="http://www.w3.org/2000/svg" width="24" height="24" viewBox="0 0 24 24">
  <path d="M12,0.575 C18.3098533,0.575 23.425,5.69014673 23.425,12 C23.425,18.3098533 18.3098533,23.425 12,23.425 C5.69014673,23.425 0.575,18.3098533 0.575,12 C0.575,5.69014673 5.69014673,0.575 12,0.575 Z M12,1.825 C6.38050267,1.825 1.825,6.38050267 1.825,12 C1.825,17.6194973 6.38050267,22.175 12,22.175 C17.6194973,22.175 22.175,17.6194973 22.175,12 C22.175,6.38050267 17.6194973,1.825 12,1.825 Z M7.19468522,14.7802969 C7.75241084,14.7802969 8.20453678,15.2324228 8.20453678,15.7901484 C8.20453678,16.3478741 7.75241084,16.8 7.19468522,16.8 C6.6369596,16.8 6.18483366,16.3478741 6.18483366,15.7901484 C6.18483366,15.2324228 6.6369596,14.7802969 7.19468522,14.7802969 Z M17.141932,15.1169141 C17.513749,15.1169141 17.8151663,15.4183314 17.8151663,15.7901484 C17.8151663,16.1619655 17.513749,16.4633828 17.141932,16.4633828 L17.141932,16.4633828 L10.4095882,16.4633828 C10.0377712,16.4633828 9.73635387,16.1619655 9.73635387,15.7901484 C9.73635387,15.4183314 10.0377712,15.1169141 10.4095882,15.1169141 L10.4095882,15.1169141 Z M7.19468522,10.9901484 C7.75241084,10.9901484 8.20453678,11.4422744 8.20453678,12 C8.20453678,12.5577256 7.75241084,13.0098516 7.19468522,13.0098516 C6.6369596,13.0098516 6.18483366,12.5577256 6.18483366,12 C6.18483366,11.4422744 6.6369596,10.9901484 7.19468522,10.9901484 Z M17.141932,11.3267656 C17.513749,11.3267656 17.8151663,11.6281829 17.8151663,12 C17.8151663,12.3718171 17.513749,12.6732344 17.141932,12.6732344 L17.141932,12.6732344 L10.4095882,12.6732344 C10.0377712,12.6732344 9.73635387,12.3718171 9.73635387,12 C9.73635387,11.6281829 10.0377712,11.3267656 10.4095882,11.3267656 L10.4095882,11.3267656 Z M7.19468522,7.2 C7.75241084,7.2 8.20453678,7.65212594 8.20453678,8.20985156 C8.20453678,8.76757717 7.75241084,9.21970312 7.19468522,9.21970312 C6.6369596,9.21970312 6.18483366,8.76757717 6.18483366,8.20985156 C6.18483366,7.65212594 6.6369596,7.2 7.19468522,7.2 Z M17.141932,7.53661719 C17.513749,7.53661719 17.8151663,7.83803448 17.8151663,8.20985156 C17.8151663,8.58166864 17.513749,8.88308593 17.141932,8.88308593 L17.141932,8.88308593 L10.4095882,8.88308593 C10.0377712,8.88308593 9.73635387,8.58166864 9.73635387,8.20985156 C9.73635387,7.83803448 10.0377712,7.53661719 10.4095882,7.53661719 L10.4095882,7.53661719 Z"/>
</svg>
