<svg xmlns="http://www.w3.org/2000/svg" width="24" height="24" viewBox="0 0 24 24">
  <path fill-rule="evenodd" d="M18.2,0.8 C20.9614237,0.8 23.2,3.03857625 23.2,5.8 L23.2,5.8 L23.2,23.2 L17.5867187,19.2 L5.8,19.2 C3.03857625,19.2 0.8,16.9614237 0.8,14.2 L0.8,14.2 L0.8,5.8 C0.8,3.03857625 3.03857625,0.8 5.8,0.8 L5.8,0.8 Z M6.97975178,8.8 C6.31701008,8.8 5.77975178,9.3372583 5.77975178,10 C5.77975178,10.6627417 6.31701008,11.2 6.97975178,11.2 C7.64249348,11.2 8.17975178,10.6627417 8.17975178,10 C8.17975178,9.3372583 7.64249348,8.8 6.97975178,8.8 Z M12,8.8 C11.3372583,8.8 10.8,9.3372583 10.8,10 C10.8,10.6627417 11.3372583,11.2 12,11.2 C12.6627417,11.2 13.2,10.6627417 13.2,10 C13.2,9.3372583 12.6627417,8.8 12,8.8 Z M17.0202482,8.8 C16.3575065,8.8 15.8202482,9.3372583 15.8202482,10 C15.8202482,10.6627417 16.3575065,11.2 17.0202482,11.2 C17.6829899,11.2 18.2202482,10.6627417 18.2202482,10 C18.2202482,9.3372583 17.6829899,8.8 17.0202482,8.8 Z"/>
</svg>
