<svg xmlns="http://www.w3.org/2000/svg" width="24" height="24" viewBox="0 0 24 24">
  <path d="M18.2,0.175 C21.3066017,0.175 23.825,2.69339828 23.825,5.8 L23.825,5.8 L23.825,23.2 C23.825,23.7080377 23.2510337,24.0038177 22.837296,23.70899 L22.837296,23.70899 L17.386814,19.825 L5.8,19.825 C2.69339828,19.825 0.175,17.3066017 0.175,14.2 L0.175,14.2 L0.175,5.8 C0.175,2.69339828 2.69339828,0.175 5.8,0.175 L5.8,0.175 Z M18.2,1.425 L5.8,1.425 C3.38375422,1.425 1.425,3.38375422 1.425,5.8 L1.425,5.8 L1.425,14.2 C1.425,16.6162458 3.38375422,18.575 5.8,18.575 L5.8,18.575 L17.5867188,18.575 C17.7167441,18.575 17.8435322,18.6155529 17.9494228,18.69101 L17.9494228,18.69101 L22.575,21.9871764 L22.575,5.8 C22.575,3.38375422 20.6162458,1.425 18.2,1.425 L18.2,1.425 Z M6.97975178,8.8 C7.64249348,8.8 8.17975178,9.3372583 8.17975178,10 C8.17975178,10.6627417 7.64249348,11.2 6.97975178,11.2 C6.31701008,11.2 5.77975178,10.6627417 5.77975178,10 C5.77975178,9.3372583 6.31701008,8.8 6.97975178,8.8 Z M12,8.8 C12.6627417,8.8 13.2,9.3372583 13.2,10 C13.2,10.6627417 12.6627417,11.2 12,11.2 C11.3372583,11.2 10.8,10.6627417 10.8,10 C10.8,9.3372583 11.3372583,8.8 12,8.8 Z M17.0202482,8.8 C17.6829899,8.8 18.2202482,9.3372583 18.2202482,10 C18.2202482,10.6627417 17.6829899,11.2 17.0202482,11.2 C16.3575065,11.2 15.8202482,10.6627417 15.8202482,10 C15.8202482,9.3372583 16.3575065,8.8 17.0202482,8.8 Z"/>
</svg>
