<svg xmlns="http://www.w3.org/2000/svg" width="21" height="21" viewBox="0 0 21 21">
  <g fill="none" fill-rule="evenodd">
    <path fill-rule="nonzero" stroke="#FFF" d="M10.2814516,1.7503755 L2.49676821,1.75566107 C1.65593351,1.80391745 0.902441459,2.17846004 0.361375186,2.75491794 C-0.172789295,3.32402259 -0.5,4.08970676 -0.5,4.93182711 L-0.5,15.8008054 L3.21200404,13.2616517 L6.74487751,13.26133 L6.74596773,8.81200891 C6.74596774,7.7952816 7.15802825,6.8749187 7.82423995,6.208707 C8.49045166,5.54249529 9.41081456,5.13043478 10.4274194,5.13043478 L13.4569827,5.13037664 C13.5186617,4.10805855 13.0978446,3.18160524 12.4000787,2.55838599 C11.8374826,2.0558954 11.095156,1.7503755 10.2814516,1.7503755 Z"/>
    <path fill-rule="nonzero" d="M18.0274194,6.13043478 C19.5083442,6.13043478 20.708871,7.33096156 20.708871,8.8118864 L20.708871,8.8118864 L20.708871,13.9602735 C20.708871,15.4411983 19.5083442,16.6417251 18.0274194,16.6417251 L18.0274194,16.6417251 L10.8033014,16.6417251 C10.7236085,16.6417251 10.6458996,16.6665801 10.5809989,16.712828 L10.5809989,16.712828 L7.74596774,18.733059 L7.74596774,8.8118864 C7.74596774,7.33096156 8.94649452,6.13043478 10.4274194,6.13043478 L10.4274194,6.13043478 Z M11.150493,10.6505961 C10.7442965,10.6505961 10.4150092,10.9798834 10.4150092,11.3860799 C10.4150092,11.7922765 10.7442965,12.1215638 11.150493,12.1215638 C11.5566895,12.1215638 11.8859769,11.7922765 11.8859769,11.3860799 C11.8859769,10.9798834 11.5566895,10.6505961 11.150493,10.6505961 Z M14.2274194,10.6505961 C13.8212228,10.6505961 13.4919355,10.9798834 13.4919355,11.3860799 C13.4919355,11.7922765 13.8212228,12.1215638 14.2274194,12.1215638 C14.6336159,12.1215638 14.9629032,11.7922765 14.9629032,11.3860799 C14.9629032,10.9798834 14.6336159,10.6505961 14.2274194,10.6505961 Z M17.3043457,10.6505961 C16.8981492,10.6505961 16.5688618,10.9798834 16.5688618,11.3860799 C16.5688618,11.7922765 16.8981492,12.1215638 17.3043457,12.1215638 C17.7105422,12.1215638 18.0398296,11.7922765 18.0398296,11.3860799 C18.0398296,10.9798834 17.7105422,10.6505961 17.3043457,10.6505961 Z"/>
  </g>
</svg>
