<svg xmlns="http://www.w3.org/2000/svg" width="22" height="22" viewBox="0 0 22 22">
  <path fill-rule="evenodd" d="M11,0.423076923 C16.8414733,0.423076923 21.5769231,5.15852668 21.5769231,11 C21.5769231,16.8414733 16.8414733,21.5769231 11,21.5769231 C5.15852668,21.5769231 0.423076923,16.8414733 0.423076923,11 C0.423076923,5.15852668 5.15852668,0.423076923 11,0.423076923 Z M11,6.01923077 C10.5857864,6.01923077 10.25,6.35501721 10.25,6.76923077 L10.25,6.76923077 L10.2490769,10.2490769 L6.76923077,10.25 L6.66746021,10.2568466 C6.30138465,10.306509 6.01923077,10.6203042 6.01923077,11 C6.01923077,11.4142136 6.35501721,11.75 6.76923077,11.75 L6.76923077,11.75 L10.2490769,11.7490769 L10.25,15.2307692 L10.2568466,15.3325398 C10.306509,15.6986153 10.6203042,15.9807692 11,15.9807692 C11.4142136,15.9807692 11.75,15.6449828 11.75,15.2307692 L11.75,15.2307692 L11.7490769,11.7490769 L15.2307692,11.75 L15.3325398,11.7431534 C15.6986153,11.693491 15.9807692,11.3796958 15.9807692,11 C15.9807692,10.5857864 15.6449828,10.25 15.2307692,10.25 L15.2307692,10.25 L11.7490769,10.2490769 L11.75,6.76923077 L11.7431534,6.66746021 C11.693491,6.30138465 11.3796958,6.01923077 11,6.01923077 Z"/>
</svg>
