<svg xmlns="http://www.w3.org/2000/svg" width="18" height="18" viewBox="0 0 18 18">
  <g transform="scale(1 -1) rotate(-45 -12.564 -6.432)">
    <path d="M0.103512807,9.55805826 C0.320470747,9.34110032 0.657251248,9.31699388 0.900836424,9.48573895 L0.987396284,9.55805826 L4.545,13.116 L8.10351281,9.55805826 C8.32047075,9.34110032 8.65725125,9.31699388 8.90083642,9.48573895 L8.98739628,9.55805826 C9.20435422,9.7750162 9.22846066,10.1117967 9.0597156,10.3553819 L8.98739628,10.4419417 L4.98739628,14.4419417 C4.77043834,14.6588997 4.43365784,14.6830061 4.19007267,14.5142611 L4.10351281,14.4419417 L0.103512807,10.4419417 C-0.140564875,10.1978641 -0.140564875,9.80213594 0.103512807,9.55805826 Z"/>
    <path d="M4.54545455,-0.625 C4.8592527,-0.625 5.11903768,-0.393742123 5.16367794,-0.0923579193 L5.17045455,0 L5.17045455,14 C5.17045455,14.345178 4.89063251,14.625 4.54545455,14.625 C4.23165639,14.625 3.97187141,14.3937421 3.92723115,14.0923579 L3.92045455,14 L3.92045455,0 C3.92045455,-0.345177969 4.20027658,-0.625 4.54545455,-0.625 Z"/>
  </g>
</svg>
