<svg xmlns="http://www.w3.org/2000/svg" width="18" height="18" viewBox="0 0 18 18">
  <g fill="none" fill-rule="evenodd">
    <path fill-rule="nonzero" d="M8.12573339,3.05466557 C8.34269132,2.83770763 8.67947183,2.8136012 8.923057,2.98234626 L9.00961686,3.05466557 L12.5672206,6.61260731 L16.1257334,3.05466557 C16.3426913,2.83770763 16.6794718,2.8136012 16.923057,2.98234626 L17.0096169,3.05466557 C17.2265748,3.27162351 17.2506812,3.60840401 17.0819362,3.85198919 L17.0096169,3.93854905 L13.0096169,7.93854905 C12.7926589,8.15550699 12.4558784,8.17961343 12.2122932,8.01086836 L12.1257334,7.93854905 L8.12573339,3.93854905 C7.8816557,3.69447137 7.8816557,3.29874326 8.12573339,3.05466557 Z" transform="scale(1 -1) rotate(-45 -.702 0)"/>
    <path fill-rule="nonzero" d="M9.03214122,1.40714122 C9.34593937,1.40714122 9.60572435,1.63839909 9.65036461,1.9397833 L9.65714122,2.03214122 L9.65714122,16.0321412 C9.65714122,16.3773192 9.37731919,16.6571412 9.03214122,16.6571412 C8.71834306,16.6571412 8.45855808,16.4258833 8.41391782,16.1244991 L8.40714122,16.0321412 L8.40714122,2.03214122 C8.40714122,1.68696325 8.68696325,1.40714122 9.03214122,1.40714122 Z" transform="scale(1 -1) rotate(-45 -12.773 0)"/>
  </g>
</svg>
