<svg xmlns="http://www.w3.org/2000/svg" width="14" height="14" viewBox="0 0 14 14">
  <path d="M2.09293763,2.04288802 C4.13290259,0.00292306406 7.44033928,0.00292306406 9.48030424,2.04288802 C11.2960939,3.85867773 11.4956342,6.6786761 10.078925,8.71517424 L13.1441429,11.7799789 C13.5346672,12.1705032 13.5346672,12.8036682 13.1441429,13.1941925 C12.7815132,13.5568222 12.2096678,13.5827243 11.8171501,13.2718988 L11.7299293,13.1941925 L8.64513258,10.1099587 C6.61905932,11.4371823 3.87329729,11.2106143 2.09293763,9.43025463 C0.0529726679,7.39028967 0.0529726679,4.08285298 2.09293763,2.04288802 Z M8.06609068,3.45710159 C6.8071743,2.19818521 4.76606757,2.19818521 3.50715119,3.45710159 C2.24823481,4.71601796 2.24823481,6.75712469 3.50715119,8.01604107 C4.76606757,9.27495745 6.8071743,9.27495745 8.06609068,8.01604107 C9.32500705,6.75712469 9.32500705,4.71601796 8.06609068,3.45710159 Z"/>
</svg>
