<svg xmlns="http://www.w3.org/2000/svg" width="18" height="18" viewBox="0 0 18 18">
  <g transform="translate(.5 .5)">
    <path d="M8.5,0.375 C4.01268641,0.375 0.375,4.01268641 0.375,8.5 C0.375,12.9873136 4.01268641,16.625 8.5,16.625 C12.9873136,16.625 16.625,12.9873136 16.625,8.5 C16.625,4.01268641 12.9873136,0.375 8.5,0.375 Z M8.5,1.625 C12.2969577,1.625 15.375,4.70304235 15.375,8.5 C15.375,12.2969577 12.2969577,15.375 8.5,15.375 C4.70304235,15.375 1.625,12.2969577 1.625,8.5 C1.625,4.70304235 4.70304235,1.625 8.5,1.625 Z"/>
    <path d="M8.5,3.91785714 C8.81379815,3.91785714 9.07358314,4.14911502 9.1182234,4.45049922 L9.125,4.54285714 L9.125,8.139 L12.2766016,9.95873412 C12.5456412,10.1140642 12.655507,10.4392149 12.5489724,10.7206138 L12.5053675,10.8125 C12.3500374,11.0815396 12.0248868,11.1914054 11.7434878,11.0848707 L11.6516016,11.0412659 L7.875,8.86084392 L7.875,4.54285714 C7.875,4.19767917 8.15482203,3.91785714 8.5,3.91785714 Z"/>
  </g>
</svg>
