<svg xmlns="http://www.w3.org/2000/svg" width="12" height="12" viewBox="0 0 12 12">
  <path d="M6,0 C9.3137085,0 12,2.6862915 12,6 C12,9.3137085 9.3137085,12 6,12 C2.6862915,12 0,9.3137085 0,6 C0,2.6862915 2.6862915,0 6,0 Z M6,1 C3.23857625,1 1,3.23857625 1,6 C1,8.76142375 3.23857625,11 6,11 C8.76142375,11 11,8.76142375 11,6 C11,3.23857625 8.76142375,1 6,1 Z M6,3 C6.24545989,3 6.44960837,3.17687516 6.49194433,3.41012437 L6.5,3.5 L6.5,5.499 L8.5,5.5 C8.77614237,5.5 9,5.72385763 9,6 C9,6.24545989 8.82312484,6.44960837 8.58987563,6.49194433 L8.5,6.5 L6.5,6.499 L6.5,8.5 C6.5,8.77614237 6.27614237,9 6,9 C5.75454011,9 5.55039163,8.82312484 5.50805567,8.58987563 L5.5,8.5 L5.5,6.499 L3.5,6.5 C3.22385763,6.5 3,6.27614237 3,6 C3,5.75454011 3.17687516,5.55039163 3.41012437,5.50805567 L3.5,5.5 L5.5,5.499 L5.5,3.5 C5.5,3.22385763 5.72385763,3 6,3 Z"/>
</svg>
