<svg xmlns="http://www.w3.org/2000/svg" width="24" height="24" viewBox="0 0 24 24">
  <path fill-rule="evenodd" d="M12.6455822,0.9609375 C13.0094092,0.9609375 13.3445292,1.15853908 13.5206328,1.4769061 L14.3284587,2.93732475 C14.5601087,3.35611064 14.9271028,3.68382159 15.3693336,3.86678415 C15.811597,4.04976023 16.3028432,4.07733093 16.7628035,3.94499123 L18.3656961,3.48380718 C18.7153423,3.38320703 19.0920383,3.48044636 19.3493055,3.73771357 L20.2624354,4.65084348 C20.5196234,4.90803152 20.6168881,5.28458238 20.5164282,5.63415238 L20.0616866,7.21651509 C19.9275563,7.6832479 19.9562258,8.18172923 20.1429819,8.63000664 C20.329801,9.07843537 20.6628424,9.45046643 21.0879381,9.68559043 L22.5230681,10.4793728 C22.8414496,10.6554722 23.0390625,10.9906001 23.0390625,11.3544376 L23.0390625,12.6455286 C23.0390625,13.009384 22.8414302,13.3445256 22.5230243,13.5206177 L21.1169345,14.2982456 C20.6826328,14.5384329 20.3429653,14.9192264 20.1537594,15.378039 C19.9644937,15.8369966 19.9361116,16.3464961 20.0732311,16.8236353 L20.5164302,18.3658489 C20.6168889,18.7154183 20.519624,19.0919679 20.2624366,19.3491553 L19.3491295,20.2624624 C19.0919558,20.5196361 18.7154313,20.6169053 18.3658751,20.5164709 L16.8456737,20.0796867 C16.3614873,19.9405703 15.8444059,19.970042 15.379162,20.1632724 C14.9138574,20.3565281 14.5277884,20.7017816 14.2839563,21.1426921 L13.5206143,22.5230086 C13.3445248,22.8414233 13.0093784,23.0390625 12.6455165,23.0390625 L11.3543545,23.0390625 C10.9905612,23.0390625 10.6554666,22.8414971 10.4793493,22.5231761 L9.71533173,21.142262 C9.4714496,20.7014603 9.08542373,20.3562847 8.62019977,20.1630198 C8.15505658,19.9697884 7.63806076,19.9403352 7.15398161,20.0794895 L5.63418843,20.5163722 C5.28460031,20.6168655 4.90801492,20.5196068 4.65080804,20.2623999 L3.73766056,19.3492525 C3.48042152,19.0920134 3.38317317,18.7153691 3.48372341,18.36575 L3.92701455,16.8244007 C4.06423313,16.3472836 4.03587736,15.8377641 3.84656509,15.3788191 C3.65730263,14.9199949 3.3176388,14.5391695 2.8833547,14.2988838 L1.47680904,13.5206539 C1.15849632,13.3445341 0.9609375,13.0094442 0.9609375,12.6456569 L0.9609375,11.3543108 C0.9609375,10.9905407 1.15847787,10.6554637 1.47676716,10.479337 L2.91235108,9.68495076 C3.33743158,9.44973071 3.67047103,9.07766748 3.85734619,8.62922621 C4.04414847,8.18095984 4.07279253,7.68245715 3.93856514,7.21574436 L3.48372499,5.634251 C3.38317381,5.28463141 3.48042199,4.9079861 3.73766156,4.65074653 L4.65070636,3.73770174 C4.90796728,3.48044081 5.28465173,3.38319947 5.63429185,3.48378847 L7.23773124,3.94508672 C7.69740702,4.07733221 8.18834562,4.04976272 8.63032503,3.86688327 C9.07228147,3.68401332 9.43907137,3.35653316 9.67065998,2.93804347 L10.4793316,1.47674216 C10.6554625,1.15846685 10.9905317,0.9609375 11.3542916,0.9609375 L12.6455822,0.9609375 Z M12,7.61943359 C9.5699471,7.61943359 7.6,9.58938069 7.6,12.0194336 C7.6,14.4494865 9.5699471,16.4194336 12,16.4194336 C14.4300529,16.4194336 16.4,14.4494865 16.4,12.0194336 C16.4,9.58938069 14.4300529,7.61943359 12,7.61943359 Z"/>
</svg>
