<svg xmlns="http://www.w3.org/2000/svg" width="24" height="24" viewBox="0 0 24 24">
  <path d="M12.6455822,0.3359375 C13.236801,0.3359375 13.781371,0.657040067 14.0675395,1.17438647 L14.8753653,2.63480512 C15.0384757,2.92968242 15.2968852,3.16043165 15.6082706,3.28926003 C15.9198513,3.41816921 16.265941,3.43759314 16.5899894,3.344358 L18.192882,2.88317394 C18.761057,2.7196987 19.373188,2.87771261 19.7912472,3.29577183 L20.7043771,4.20890174 C21.1223077,4.6268323 21.2803628,5.23872746 21.1171154,5.80677871 L20.6623738,7.38914142 C20.5674326,7.71950812 20.5877257,8.07234731 20.7199169,8.38965075 C20.8524806,8.70784808 21.088801,8.97183493 21.3904417,9.13867488 L22.8255717,9.93245721 C23.3429415,10.2186188 23.6640625,10.7632017 23.6640625,11.3544376 L23.6640625,12.6455286 C23.6640625,13.2367937 23.3429101,13.7813987 22.8255004,14.0675484 L21.4194106,14.8451763 C21.1092534,15.0167065 20.8666794,15.2886507 20.7315577,15.6163124 C20.5960891,15.9448153 20.5757743,16.3094941 20.6739188,16.6510106 L21.1171179,18.1932242 C21.2803633,18.7612744 21.1223079,19.3731675 20.7043784,19.791097 L19.7910712,20.7044041 C19.373164,21.1223114 18.7613117,21.2803739 18.1932829,21.1171679 L16.6730815,20.6803837 C16.3250275,20.5803808 15.9533271,20.6015664 15.6188898,20.7404687 C15.2841045,20.8795157 15.0063289,21.1279246 14.8308924,21.4451584 L14.0675504,22.825475 C13.7814049,23.3428989 13.2367921,23.6640625 12.6455165,23.6640625 L11.3543545,23.6640625 C10.7631903,23.6640625 10.2186617,23.3430188 9.93247113,22.8257471 L9.16845352,21.444833 C8.99296265,21.1276442 8.71518907,20.8792654 8.38042673,20.7401973 C8.04612733,20.6013215 7.67456134,20.5801534 7.32665262,20.6801639 L5.80685944,21.1170466 C5.23877873,21.2803481 4.62682748,21.1223029 4.2088663,20.7043417 L3.29571882,19.7911942 C2.87770539,19.3731808 2.71967682,18.7611337 2.88307095,18.1930027 L3.32636209,16.6516534 C3.42456017,16.3102129 3.40426786,15.9455842 3.26878984,15.6171482 C3.1336008,15.2894128 2.89098095,15.0173915 2.58077441,14.8457569 L1.17422875,14.067527 C0.656970581,13.7813324 0.3359375,13.2368112 0.3359375,12.6456569 L0.3359375,11.3543108 C0.3359375,10.7631844 0.656940596,10.2186843 1.17416069,9.93247845 L2.60974461,9.13809216 C2.91143626,8.97114984 3.14780378,8.70708605 3.28043436,8.38881459 C3.41263441,8.0715763 3.43290583,7.71878575 3.33791305,7.38849291 L2.8830729,5.80699955 C2.71967723,5.23886773 2.87770552,4.6268191 3.29571983,4.20880479 L4.20876462,3.29576 C4.62681362,2.877711 5.23892585,2.71969381 5.80709105,2.88315095 L7.41053044,3.34444919 C7.73429015,3.43759258 8.08006896,3.41817479 8.39136473,3.28936879 C8.70252308,3.16061965 8.96076062,2.93005803 9.12381003,2.63542138 L9.93248168,1.17412007 C10.2186943,0.6569227 10.7631818,0.3359375 11.3542916,0.3359375 L12.6455822,0.3359375 Z M12.6455822,1.5859375 L11.3542916,1.5859375 C11.2178816,1.5859375 11.0922306,1.66001101 11.0261816,1.77936425 L10.2175099,3.24066556 C9.91738211,3.78300829 9.44203985,4.207407 8.86928533,4.44439775 C8.29662229,4.68135066 7.66052389,4.71707183 7.06493205,4.54572424 L5.46149266,4.084426 C5.33037761,4.04670512 5.18912095,4.08317063 5.0926481,4.17964347 L4.1796033,5.09268827 C4.08313846,5.18915311 4.0466704,5.3303951 4.08437709,5.46150245 L4.53921724,7.0429958 C4.71267923,7.64612856 4.67566252,8.29034337 4.43425802,8.86963782 C4.19313828,9.44824892 3.76342689,9.92831158 3.21495754,10.2318094 L1.77937362,11.0261956 C1.66001514,11.0922432 1.5859375,11.217897 1.5859375,11.3543108 L1.5859375,12.6456569 C1.5859375,12.7820772 1.66002206,12.9077359 1.77938933,12.9737808 L3.18593498,13.7520107 C3.74429665,14.0609475 4.18100447,14.550577 4.42434034,15.14049 C4.66748686,15.729944 4.70390609,16.3843544 4.52766701,16.997148 L4.08437587,18.5384973 C4.04666953,18.6696045 4.08313766,18.8108461 4.1796023,18.9073107 L5.09274978,19.8204582 C5.18920236,19.9169108 5.33042188,19.9533828 5.46151743,19.9156978 L6.98131061,19.4788151 C7.60156019,19.300517 8.26398583,19.3382553 8.85997281,19.5858422 C9.45565839,19.833304 9.94993654,20.2752763 10.2622099,20.839691 L11.0262276,22.2206051 C11.0922715,22.3399755 11.217932,22.4140625 11.3543545,22.4140625 L12.6455165,22.4140625 C12.7819647,22.4140625 12.9076446,22.3399478 12.9736782,22.2205423 L13.7370202,20.8402258 C14.0492478,20.2756387 14.5436103,19.8335406 15.1394342,19.5860761 C15.7354847,19.3385176 16.3979471,19.3007597 17.018266,19.4789897 L18.5384674,19.9157738 C18.6695509,19.9534368 18.8107476,19.9169608 18.9071878,19.8205207 L19.8204949,18.9072135 C19.9169402,18.8107683 19.9534145,18.6695621 19.9157425,18.5384736 L19.4725435,16.9962601 C19.2964489,16.3834982 19.3328984,15.7291779 19.5759612,15.1397656 C19.8192513,14.5498021 20.2560123,14.0601594 20.8144584,13.7513148 L22.2205482,12.973687 C22.3399504,12.9076524 22.4140625,12.7819744 22.4140625,12.6455286 L22.4140625,11.3544376 C22.4140625,11.2179986 22.3399577,11.0923256 22.2205646,11.0262883 L20.7854346,10.232506 C20.2368837,9.92909793 19.8071214,9.44902266 19.5660468,8.87036252 C19.324726,8.29111115 19.28768,7.64698769 19.4609994,7.04388877 L19.9157409,5.46152605 C19.9534134,5.3304373 19.9169392,5.18923073 19.8204936,5.09278521 L18.9073637,4.17965531 C18.8108885,4.0831801 18.6696275,4.04671535 18.5385102,4.08444041 L16.9356176,4.54562447 C16.3397455,4.71706871 15.7033428,4.68135126 15.1303966,4.44430828 C14.5573204,4.20721153 14.0817417,3.78253886 13.781552,3.23984437 L12.9737262,1.77942572 C12.9076873,1.66003809 12.7820173,1.5859375 12.6455822,1.5859375 Z M12,6.99443359 C14.7752309,6.99443359 17.025,9.24420273 17.025,12.0194336 C17.025,14.7946645 14.7752309,17.0444336 12,17.0444336 C9.22476913,17.0444336 6.975,14.7946645 6.975,12.0194336 C6.975,9.24420273 9.22476913,6.99443359 12,6.99443359 Z M12,8.24443359 C9.91512507,8.24443359 8.225,9.93455866 8.225,12.0194336 C8.225,14.1043085 9.91512507,15.7944336 12,15.7944336 C14.0848749,15.7944336 15.775,14.1043085 15.775,12.0194336 C15.775,9.93455866 14.0848749,8.24443359 12,8.24443359 Z"/>
</svg>
