<?xml version="1.0" encoding="UTF-8"?>
<svg width="161px" height="55px" viewBox="0 0 161 55" version="1.1" xmlns="http://www.w3.org/2000/svg" xmlns:xlink="http://www.w3.org/1999/xlink">
    <!-- Generator: Sketch 63.1 (92452) - https://sketch.com -->
    <title>textsurge-login-logo</title>
    <desc>Created with Sketch.</desc>
    <g id="Menu/Home" stroke="none" stroke-width="1" fill="none" fill-rule="evenodd">
        <g id="Forgot-Password" transform="translate(-57.000000, -78.000000)" fill="#FFFFFF">
            <g id="textsurge-login-logo" transform="translate(57.000000, 78.000000)">
                <g id="home-active">
                    <path d="M31.9769416,0 C41.560092,0 49.3287703,7.76867836 49.3287703,17.3518288 L49.3287703,21.1859154 C49.3287703,30.7690658 41.560092,38.5377442 31.9769416,38.5377442 L28.7941204,38.5359329 L42.3285367,23.2359788 L27.3518996,23.2359788 L34.5766001,10.8315948 L16.4469929,29.5130826 L27.8169683,29.5130826 L2.86128485,54.534319 L9.39034069,36.4767422 C3.94766786,33.5485285 0.247883268,27.7992875 0.247883268,21.1859154 L0.247883268,17.3518288 C0.247883268,7.76867836 8.01656162,0 17.599712,0 L31.9769416,0 Z" id="Path"></path>
                </g>
                <path d="M65.8363643,27.4906393 L65.8363643,17.7908584 L68.6600783,17.7908584 L68.6600783,16.2173384 L65.8363643,16.2173384 L65.8363643,13.2858491 L64.1981791,13.2858491 L64.1981791,16.2173384 L61.6762361,16.2173384 L61.6762361,17.7908584 L64.1981791,17.7908584 L64.1981791,27.4906393 L65.8363643,27.4906393 Z M75.6439205,27.70619 C76.5061232,27.70619 77.3252158,27.5445269 78.1011983,27.2212009 C78.8771807,26.8978749 79.5166478,26.4919211 80.0195994,26.0033395 L80.0195994,26.0033395 L79.1789517,24.8178108 C78.5466697,25.3495025 77.9682753,25.7051611 77.4437687,25.8847867 C76.919262,26.0644122 76.3839778,26.154225 75.8379161,26.154225 C74.5733521,26.154225 73.5602638,25.7949739 72.7986514,25.0764716 C72.037039,24.3579693 71.6203077,23.3879912 71.5484574,22.1665374 L71.5484574,22.1665374 L80.4722558,22.1665374 L80.4938109,21.41211 C80.522551,20.3487266 80.3285553,19.4110811 79.911824,18.5991735 C79.4950927,17.7872659 78.9023283,17.1477989 78.1335309,16.6807724 C77.3647334,16.2137459 76.4773831,15.9802327 75.4714799,15.9802327 C74.3793564,15.9802327 73.4093784,16.235301 72.5615457,16.7454376 C71.713713,17.2555742 71.0526909,17.956114 70.5784794,18.8470568 C70.1042678,19.7379996 69.8671621,20.7582729 69.8671621,21.9078765 C69.8671621,23.0431101 70.1114529,24.0490133 70.6000344,24.9255861 C71.088616,25.8021589 71.7676006,26.4847361 72.6369884,26.9733176 C73.5063762,27.4618992 74.5086868,27.70619 75.6439205,27.70619 Z M78.8340706,20.787013 L71.6131226,20.787013 C71.7855632,19.7236296 72.2094795,18.9153145 72.8848717,18.3620678 C73.5602638,17.808821 74.4152815,17.5321976 75.4499248,17.5321976 C76.139687,17.5321976 76.7324514,17.6830831 77.228218,17.9848541 C77.7239846,18.286625 78.1083833,18.6782088 78.3814142,19.1596053 C78.654445,19.6410018 78.8053305,20.1403609 78.8340706,20.6576826 L78.8340706,20.6576826 L78.8340706,20.787013 Z M83.5761857,27.4906393 L86.9603314,23.007185 L90.4522525,27.4906393 L92.499984,27.4906393 L88.0596399,21.7785461 L92.2197681,16.2173384 L90.2367018,16.2173384 L87.132772,20.5930173 L83.7486262,16.2173384 L81.6793396,16.2173384 L86.0119084,21.8001012 L81.5931194,27.4906393 L83.5761857,27.4906393 Z M97.6085353,27.4906393 L97.6085353,17.7908584 L100.432249,17.7908584 L100.432249,16.2173384 L97.6085353,16.2173384 L97.6085353,13.2858491 L95.9703501,13.2858491 L95.9703501,16.2173384 L93.448407,16.2173384 L93.448407,17.7908584 L95.9703501,17.7908584 L95.9703501,27.4906393 L97.6085353,27.4906393 Z M106.230563,27.70619 C107.078395,27.70619 107.840008,27.551712 108.5154,27.242756 C109.190792,26.9338 109.726076,26.5062911 110.121253,25.9602294 C110.516429,25.4141677 110.714017,24.7962557 110.714017,24.1064935 C110.714017,23.2730309 110.469726,22.6048237 109.981145,22.1018721 C109.420713,21.5127003 108.45792,21.0384888 107.092765,20.6792376 C106.072492,20.4062068 105.418655,20.169101 105.131254,19.9679204 C104.829483,19.7667397 104.671413,19.4937089 104.657043,19.1488278 C104.657043,18.4303255 105.174364,18.0710743 106.209008,18.0710743 C106.654479,18.0710743 107.139468,18.1968122 107.663975,18.448288 C108.188481,18.6997638 108.651915,19.0123123 109.054277,19.3859335 L109.054277,19.3859335 L110.649352,17.639973 C110.11766,17.0939112 109.456638,16.6628099 108.666285,16.3466689 C107.875933,16.0305278 107.035285,15.8724573 106.144342,15.8724573 C105.36836,15.8724573 104.649858,16.0161578 103.988836,16.3035587 C103.327813,16.5909596 102.796122,16.9897284 102.39376,17.499865 C101.991399,18.0100016 101.790219,18.602766 101.790219,19.2781582 C101.790219,20.1259909 102.056064,20.8373081 102.587756,21.41211 C103.191298,22.058762 104.218756,22.5688986 105.670131,22.9425198 C106.647294,23.2011806 107.265206,23.4167313 107.523867,23.5891719 C107.782528,23.7759825 107.911858,24.0274583 107.911858,24.3435993 C107.911858,24.7028504 107.775343,24.9830663 107.502312,25.1842469 C107.229281,25.3854276 106.87003,25.4860179 106.424558,25.4860179 C105.864127,25.4860179 105.31088,25.3818351 104.764818,25.1734694 C104.218756,24.9651037 103.730175,24.6238152 103.299073,24.1496037 L103.299073,24.1496037 L101.445337,25.7231237 C101.948289,26.3554057 102.609311,26.8439872 103.428404,27.1888683 C104.247496,27.5337494 105.181549,27.70619 106.230563,27.70619 Z M116.857211,27.70619 C117.590084,27.70619 118.276253,27.5409344 118.915721,27.2104234 C119.555188,26.8799123 120.068917,26.4416259 120.456908,25.8955642 L120.456908,25.8955642 L120.521573,27.4906393 L123.323732,27.4906393 L123.323732,16.1095631 L120.392243,16.1095631 L120.392243,22.9209647 C120.392243,23.5963569 120.165914,24.1496037 119.713258,24.580705 C119.260602,25.0118064 118.689392,25.2273571 117.99963,25.2273571 C117.309868,25.2273571 116.767399,24.9938438 116.372222,24.5268174 C115.977046,24.0597909 115.779458,23.4167313 115.779458,22.5976387 L115.779458,22.5976387 L115.779458,16.1095631 L112.847969,16.1095631 L112.847969,23.1365154 C112.847969,24.55915 113.203627,25.676421 113.914945,26.4883286 C114.626262,27.3002362 115.607017,27.70619 116.857211,27.70619 Z M129.359151,27.4906393 L129.359151,21.5414404 C129.359151,20.808568 129.599849,20.2014336 130.081246,19.7200371 C130.562643,19.2386405 131.155407,18.9979423 131.859539,18.9979423 C132.10383,18.9979423 132.348121,19.0266824 132.592411,19.0841626 C132.836702,19.1416427 133.037883,19.213493 133.195953,19.2997132 L133.195953,19.2997132 L133.993491,16.066453 C133.83542,16.0089728 133.645017,15.9622701 133.422282,15.926345 C133.199546,15.8904199 132.958848,15.8724573 132.700187,15.8724573 C132.024795,15.8724573 131.381735,16.0700455 130.771008,16.4652217 C130.160281,16.860398 129.668107,17.3669421 129.294486,17.9848541 L129.294486,17.9848541 L129.251376,16.1095631 L126.406107,16.1095631 L126.406107,27.4906393 L129.359151,27.4906393 Z M140.912668,32.448305 C142.795144,32.448305 144.271666,31.9453534 145.342235,30.9394502 C146.412803,29.933547 146.948087,28.5037275 146.948087,26.6499916 L146.948087,26.6499916 L146.948087,16.1095631 L144.124373,16.1095631 L144.081263,17.4459773 C143.693272,17.014876 143.172358,16.6448473 142.518521,16.3358913 C141.864683,16.0269353 141.156959,15.8724573 140.395346,15.8724573 C139.375073,15.8724573 138.45539,16.1239331 137.636298,16.6268847 C136.817205,17.1298363 136.174145,17.8267836 135.707119,18.7177264 C135.240092,19.6086692 135.006579,20.6217574 135.006579,21.756991 C135.006579,22.8778546 135.243685,23.8729803 135.717896,24.742368 C136.192108,25.6117558 136.842352,26.294333 137.66863,26.7900995 C138.494908,27.2858661 139.432553,27.5337494 140.481567,27.5337494 C141.185699,27.5337494 141.857498,27.3792714 142.496965,27.0703154 C143.136432,26.7613595 143.635792,26.3769607 143.995043,25.9171193 L143.995043,25.9171193 L143.995043,26.8008771 C143.995043,28.8989038 142.881364,29.9479171 140.654007,29.9479171 C140.021725,29.9479171 139.400221,29.8545118 138.789494,29.6677012 C138.178767,29.4808906 137.650668,29.2222298 137.205196,28.8917187 L137.205196,28.8917187 L136.170553,31.0256705 C136.716615,31.4424018 137.424339,31.7836904 138.293727,32.0495363 C139.163115,32.3153821 140.036095,32.448305 140.912668,32.448305 Z M140.998888,25.1195817 C140.093575,25.1195817 139.35711,24.8106258 138.789494,24.1927138 C138.221877,23.5748018 137.938068,22.7700793 137.938068,21.7785461 C137.938068,20.787013 138.221877,19.9751054 138.789494,19.3428234 C139.35711,18.7105414 140.093575,18.3944004 140.998888,18.3944004 C141.918571,18.3944004 142.665813,18.7069489 143.240615,19.3320458 C143.815417,19.9571428 144.102818,20.7726429 144.102818,21.7785461 C144.102818,22.7700793 143.81901,23.5748018 143.251393,24.1927138 C142.683776,24.8106258 141.932941,25.1195817 140.998888,25.1195817 Z M155.376119,27.70619 C156.166471,27.70619 156.960416,27.558897 157.757954,27.2643111 C158.555492,26.9697251 159.263216,26.5494013 159.881128,26.0033395 L159.881128,26.0033395 L158.458494,24.0202732 C157.969912,24.4226345 157.513663,24.7028504 157.089747,24.8609209 C156.665831,25.0189914 156.195212,25.0980267 155.67789,25.0980267 C154.715097,25.0980267 153.921152,24.8609209 153.296055,24.3867094 C152.670958,23.9124979 152.279374,23.2658458 152.121304,22.4467532 L152.121304,22.4467532 L160.31223,22.4467532 L160.333785,21.5198853 C160.362525,20.4277618 160.150567,19.4577837 159.69791,18.609951 C159.245254,17.7621184 158.612972,17.0903187 157.801064,16.5945521 C156.989157,16.0987856 156.073066,15.8509023 155.052793,15.8509023 C153.917559,15.8509023 152.915249,16.1095631 152.045861,16.6268847 C151.176473,17.1442064 150.493896,17.8519311 149.998129,18.750059 C149.502363,19.6481868 149.254479,20.6864226 149.254479,21.8647664 C149.254479,23 149.509548,24.0059032 150.019684,24.882476 C150.529821,25.7590488 151.244731,26.448811 152.164414,26.9517626 C153.084097,27.4547142 154.154665,27.70619 155.376119,27.70619 Z M157.531626,20.5930173 L152.142859,20.5930173 C152.47337,19.1272727 153.450533,18.3944004 155.074348,18.3944004 C155.73537,18.3944004 156.299394,18.5919885 156.766421,18.9871647 C157.233447,19.382341 157.488516,19.8888851 157.531626,20.5067971 L157.531626,20.5067971 L157.531626,20.5930173 Z" id="textsurge" fill-rule="nonzero"></path>
            </g>
        </g>
    </g>
</svg>