<svg xmlns="http://www.w3.org/2000/svg" width="24" height="24" viewBox="0 0 24 24">
  <path d="M17.1939453,2.45078125 C19.5273484,2.45078125 21.4189453,4.34237818 21.4189453,6.67578125 C21.4189453,8.09647191 20.7177353,9.35338619 19.6425313,10.119308 C22.0896366,11.0921344 23.8189453,13.482007 23.8189453,16.2757813 L23.8189453,18.2757812 C23.8189453,18.6209592 23.5391233,18.9007813 23.1939453,18.9007813 L13.4310152,18.9011116 C13.4310415,18.9088109 13.4310547,18.9165133 13.4310547,18.9242188 L13.4310547,20.9242188 C13.4310547,21.2693967 13.1512327,21.5492188 12.8060547,21.5492188 L0.806054688,21.5492188 C0.460876719,21.5492188 0.181054688,21.2693967 0.181054688,20.9242188 L0.181054688,18.9242188 C0.181054688,16.1308261 1.90989102,13.7412248 4.35595239,12.7670261 C3.28183657,12.0010561 2.58105469,10.7444756 2.58105469,9.32421875 C2.58105469,6.99081568 4.47265162,5.09921875 6.80605469,5.09921875 C9.13945776,5.09921875 11.0310547,6.99081568 11.0310547,9.32421875 C11.0310547,10.7444756 10.3302728,12.0010561 9.25562547,12.7670438 C9.90662339,13.0261476 10.5068458,13.385556 11.0372116,13.8261879 C11.7129869,12.1230591 13.0676829,10.7865685 14.7460669,10.118719 C13.6705836,9.35415375 12.9689453,8.09690571 12.9689453,6.67578125 C12.9689453,4.34237818 14.8605422,2.45078125 17.1939453,2.45078125 Z M6.80605469,13.5492188 C3.83752416,13.5492188 1.43105469,15.9556882 1.43105469,18.9242188 L1.43105469,20.2992188 L12.1810547,20.2992188 L12.1810547,18.9242188 C12.1810547,18.8139223 12.1777325,18.7044018 12.1711828,18.5957518 C12.1540822,18.5697622 12.1398114,18.5412554 12.1276741,18.5114415 L10.8598103,15.3945537 C9.87443085,14.2638152 8.42369424,13.5492188 6.80605469,13.5492188 Z M17.1939453,10.9007812 C14.758336,10.9007812 12.6531386,12.5340868 12.0148911,14.8318679 C12.6526736,15.6409505 13.1045555,16.6016845 13.3088136,17.650931 L22.5689453,17.6507813 L22.5689453,16.2757812 C22.5689453,13.3072507 20.1624758,10.9007812 17.1939453,10.9007812 Z M6.80605469,6.34921875 C5.16300756,6.34921875 3.83105469,7.68117162 3.83105469,9.32421875 C3.83105469,10.9672659 5.16300756,12.2992188 6.80605469,12.2992188 C8.44910182,12.2992188 9.78105469,10.9672659 9.78105469,9.32421875 C9.78105469,7.68117162 8.44910182,6.34921875 6.80605469,6.34921875 Z M17.1939453,3.70078125 C15.5508982,3.70078125 14.2189453,5.03273412 14.2189453,6.67578125 C14.2189453,8.31882838 15.5508982,9.65078125 17.1939453,9.65078125 C18.8369924,9.65078125 20.1689453,8.31882838 20.1689453,6.67578125 C20.1689453,5.03273412 18.8369924,3.70078125 17.1939453,3.70078125 Z"/>
</svg>
