<svg xmlns="http://www.w3.org/2000/svg" width="24" height="24" viewBox="0 0 24 24">
  <path fill-rule="evenodd" d="M17.1939453 10.7757812C20.1574245 10.7757812 22.5734844 13.1195613 22.6895781 16.0545741L22.6939453 16.2757812 22.6939453 17.7757812 13.2047636 17.7749144C13.0103424 16.6852121 12.5443682 15.6895766 11.8793252 14.8605866 12.5018744 12.5090453 14.6454971 10.7757812 17.1939453 10.7757812zM17.1939453 3.57578125C18.906028 3.57578125 20.2939453 4.96369853 20.2939453 6.67578125 20.2939453 8.38786397 18.906028 9.77578125 17.1939453 9.77578125 15.4818626 9.77578125 14.0939453 8.38786397 14.0939453 6.67578125 14.0939453 4.96369853 15.4818626 3.57578125 17.1939453 3.57578125zM6.80605469 13.4242187C9.84362081 13.4242187 12.3060547 15.8866526 12.3060547 18.9242187L12.3060547 18.9242187 12.3060547 20.4242187 1.30605469 20.4242187 1.30605469 18.9242187C1.30605469 15.8866526 3.76848856 13.4242187 6.80605469 13.4242187zM6.80605469 6.22421875C8.51813741 6.22421875 9.90605469 7.61213603 9.90605469 9.32421875 9.90605469 11.0363015 8.51813741 12.4242187 6.80605469 12.4242187 5.09397196 12.4242187 3.70605469 11.0363015 3.70605469 9.32421875 3.70605469 7.61213603 5.09397196 6.22421875 6.80605469 6.22421875z"/>
</svg>

