<svg xmlns="http://www.w3.org/2000/svg" width="20" height="20" viewBox="0 0 20 20">
  <g transform="translate(.5 4)">
    <path d="M9.5,-0.75 C6.04505589,-0.75 2.91199747,1.0131574 0.128682837,4.47490745 L-0.131349215,4.80452992 C-0.623495508,5.44063999 -0.623496688,6.32118658 -0.135692195,6.95174195 C2.71378313,10.6350864 5.93466948,12.5119048 9.5,12.5119048 C12.9549441,12.5119048 16.0880025,10.7487474 18.8713172,7.28699731 L19.1313492,6.95737485 C19.6234955,6.32126478 19.6234967,5.44071818 19.1356922,4.81016282 C16.2862169,1.1268184 13.0653305,-0.75 9.5,-0.75 Z M9.5,0.75 C12.556359,0.75 15.3637941,2.38589932 17.9492721,5.72799032 C18.0189691,5.81808349 18.018969,5.94389517 17.9492717,6.03398815 L17.6979447,6.3525735 C15.1846057,9.47848888 12.4597885,11.0119048 9.5,11.0119048 C6.44364095,11.0119048 3.63620588,9.37600545 1.05072791,6.03391444 C0.981030859,5.94382127 0.981031027,5.81800959 1.05072832,5.72791661 L1.30205534,5.40933126 C3.81539434,2.28341588 6.5402115,0.75 9.5,0.75 Z"/>
    <path d="M9.5,1.98593285 C7.34884011,1.98593285 5.60498047,3.72979249 5.60498047,5.88095238 C5.60498047,8.03211227 7.34884011,9.77597191 9.5,9.77597191 C11.6511599,9.77597191 13.3950195,8.03211227 13.3950195,5.88095238 C13.3950195,3.72979249 11.6511599,1.98593285 9.5,1.98593285 Z M9.5,3.48593285 C10.8227328,3.48593285 11.8950195,4.55821962 11.8950195,5.88095238 C11.8950195,7.20368514 10.8227328,8.27597191 9.5,8.27597191 C8.17726724,8.27597191 7.10498047,7.20368514 7.10498047,5.88095238 C7.10498047,4.55821962 8.17726724,3.48593285 9.5,3.48593285 Z"/>
  </g>
</svg>
