<?xml version="1.0" encoding="UTF-8" standalone="no"?><svg xmlns="http://www.w3.org/2000/svg" xmlns:xlink="http://www.w3.org/1999/xlink"><symbol id="checkbox-checked" xmlns="http://www.w3.org/2000/svg" viewBox="0 0 18 18"><g fill-rule="evenodd" transform="translate(1 1)"><rect rx="3"></rect><path fill-rule="nonzero" d="M12.5614569,4.11193495 C12.7450968,3.90570452 13.0611491,3.8873913 13.2673796,4.07103122 C13.4506955,4.23426671 13.4855337,4.50212437 13.3620361,4.70447527 L13.3082833,4.77695394 L6.97612414,11.8880651 C6.80616723,12.0789292 6.52459648,12.1077405 6.32133773,11.969001 L6.24915752,11.9091089 L2.71157653,8.37152795 C2.51631438,8.17626581 2.51631438,7.85968332 2.71157653,7.66442117 C2.88514288,7.49085482 3.15456728,7.47156967 3.34943542,7.60656572 L3.41868331,7.66442117 L6.581,10.827 L12.5614569,4.11193495 Z"></path></g></symbol><symbol id="checkbox-unchecked" xmlns="http://www.w3.org/2000/svg" viewBox="0 0 18 18"><path d="M14,1 C15.6568542,1 17,2.34314575 17,4 L17,14 C17,15.6568542 15.6568542,17 14,17 L4,17 C2.34314575,17 1,15.6568542 1,14 L1,4 C1,2.34314575 2.34314575,1 4,1 L14,1 Z M14,2 L4,2 C2.9456382,2 2.08183488,2.81587779 2.00548574,3.85073766 L2,4 L2,14 C2,15.0543618 2.81587779,15.9181651 3.85073766,15.9945143 L4,16 L14,16 C15.0543618,16 15.9181651,15.1841222 15.9945143,14.1492623 L16,14 L16,4 C16,2.9456382 15.1841222,2.08183488 14.1492623,2.00548574 L14,2 Z"></path></symbol><symbol id="campaigns-active" xmlns="http://www.w3.org/2000/svg" viewBox="0 0 24 24"><path fill-rule="evenodd" d="M5.79902436,14.3319864 L8.36274422,22.2245745 C8.44802651,22.4872178 8.30424695,22.7692673 8.04160358,22.8545496 C7.99173122,22.8707435 7.93962195,22.8789917 7.88718632,22.8789917 L6.32286606,22.8789917 C5.88954639,22.8789917 5.50552993,22.5999131 5.37173125,22.1877676 L2.82202436,14.3319864 L5.79902436,14.3319864 Z M17.7066105,1.76431896 C17.759562,1.84554437 17.7877541,1.94041353 17.7877541,2.03737444 L17.7877541,19.3298831 C17.7877541,19.6060254 17.5638965,19.8298831 17.2877541,19.8298831 C17.1907932,19.8298831 17.095924,19.8016909 17.0146986,19.7487395 L7.30312793,13.4173165 L7.30312793,7.94831653 L17.0146986,1.61851802 C17.2460266,1.46771364 17.5558062,1.53299095 17.7066105,1.76431896 Z M21.0832724,14.0223062 L22.9168134,15.8558471 C23.160891,16.0999248 23.160891,16.4956529 22.9168134,16.7397306 C22.6727357,16.9838083 22.2770076,16.9838083 22.0329299,16.7397306 L20.1993889,14.9061896 C19.9553112,14.662112 19.9553112,14.2663838 20.1993889,14.0223062 C20.4434666,13.7782285 20.8391947,13.7782285 21.0832724,14.0223062 Z M6.08612793,8.25031653 L6.08612793,13.1153165 L1.75912793,13.1162896 C1.20684318,13.1162896 0.759127929,12.6685744 0.759127929,12.1162896 L0.759127929,9.25096787 C0.759127929,8.69868312 1.20684318,8.25096787 1.75912793,8.25096787 L6.08612793,8.25031653 Z M23.2343492,10.2168967 C23.5795271,10.2168967 23.8593492,10.4967188 23.8593492,10.8418967 C23.8593492,11.1870747 23.5795271,11.4668967 23.2343492,11.4668967 L23.2343492,11.4668967 L20.6413306,11.4668967 C20.2961527,11.4668967 20.0163306,11.1870747 20.0163306,10.8418967 C20.0163306,10.4967188 20.2961527,10.2168967 20.6413306,10.2168967 L20.6413306,10.2168967 Z M22.0329299,4.94406286 C22.2770076,4.69998518 22.6727357,4.69998518 22.9168134,4.94406286 C23.160891,5.18814054 23.160891,5.58386866 22.9168134,5.82794634 L22.9168134,5.82794634 L21.0832724,7.66148732 C20.8391947,7.905565 20.4434666,7.905565 20.1993889,7.66148732 C19.9553112,7.41740963 19.9553112,7.02168152 20.1993889,6.77760384 L20.1993889,6.77760384 Z"></path></symbol><symbol id="chevron-right" xmlns="http://www.w3.org/2000/svg" viewBox="0 0 10 10"><path d="M0.646446609,2.64644661 C0.820012961,2.47288026 1.08943736,2.45359511 1.2843055,2.58859116 L1.35355339,2.64644661 L5,6.293 L8.64644661,2.64644661 C8.82001296,2.47288026 9.08943736,2.45359511 9.2843055,2.58859116 L9.35355339,2.64644661 C9.52711974,2.82001296 9.54640489,3.08943736 9.41140884,3.2843055 L9.35355339,3.35355339 L5.35355339,7.35355339 C5.17998704,7.52711974 4.91056264,7.54640489 4.7156945,7.41140884 L4.64644661,7.35355339 L0.646446609,3.35355339 C0.451184464,3.15829124 0.451184464,2.84170876 0.646446609,2.64644661 Z" transform="rotate(-90 5 5)"></path></symbol><symbol id="clients-active" xmlns="http://www.w3.org/2000/svg" viewBox="0 0 24 24"><path fill-rule="evenodd" d="M8.95565014,13.9495616 C9.02821384,14.9062831 9.79114557,15.6701294 10.7474672,15.7441222 L10.9,15.75 L13.3,15.75 C14.3266334,15.75 15.167967,14.9566369 15.2443499,13.9495616 L22.8,13.95 L22.8,19.4 C22.8,21.0568542 21.4568542,22.4 19.8,22.4 L4.2,22.4 C2.54314575,22.4 1.2,21.0568542 1.2,19.4 L1.2,13.95 L8.95565014,13.9495616 Z M13.3,12.15 C13.5209139,12.15 13.7046475,12.3091876 13.7427499,12.5191119 L13.75,12.6 L13.75,13.8 C13.75,14.0209139 13.5908124,14.2046475 13.3808881,14.2427499 L13.3,14.25 L10.9,14.25 C10.6790861,14.25 10.4953525,14.0908124 10.4572501,13.8808881 L10.45,13.8 L10.45,12.6 C10.45,12.3790861 10.6091876,12.1953525 10.8191119,12.1572501 L10.9,12.15 L13.3,12.15 Z M19.8,6.4 C21.4568542,6.4 22.8,7.74314575 22.8,9.4 L22.8,12.45 L15.2442732,12.4494311 C15.1712493,11.4931639 14.408492,10.7298178 13.4524825,10.6558739 L13.3,10.65 L10.9,10.65 C9.87370888,10.65 9.03259408,11.4428341 8.95572681,12.4494311 L1.2,12.45 L1.2,9.4 C1.2,7.74314575 2.54314575,6.4 4.2,6.4 L19.8,6.4 Z M14.4,0.85 C16.139697,0.85 17.55,2.26030304 17.55,4 L17.55,4.899 L16.05,4.899 L16.05,4 C16.05,3.08873016 15.3112698,2.35 14.4,2.35 L9.6,2.35 C8.68873016,2.35 7.95,3.08873016 7.95,4 L7.95,4.899 L6.45,4.899 L6.45,4 C6.45,2.26030304 7.86030304,0.85 9.6,0.85 L14.4,0.85 Z"></path></symbol><symbol id="clients" xmlns="http://www.w3.org/2000/svg" viewBox="0 0 24 24"><path d="M13.8,0.975 C15.8020322,0.975 17.425,2.59796778 17.425,4.6 L17.425,5.774 L19.8,5.775 C21.8020322,5.775 23.425,7.39796778 23.425,9.4 L23.425,19.4 C23.425,21.4020322 21.8020322,23.025 19.8,23.025 L4.2,23.025 C2.19796778,23.025 0.575,21.4020322 0.575,19.4 L0.575,9.4 C0.575,7.39796778 2.19796778,5.775 4.2,5.775 L6.575,5.774 L6.575,4.6 C6.575,2.59796778 8.19796778,0.975 10.2,0.975 L13.8,0.975 Z M22.175,13.824 L15.024,13.824 L15.025,14 C15.025,14.8974627 14.2974627,15.625 13.4,15.625 L10.6,15.625 C9.70253728,15.625 8.975,14.8974627 8.975,14 L8.974,13.824 L1.825,13.824 L1.825,19.4 C1.825,20.7116763 2.88832372,21.775 4.2,21.775 L19.8,21.775 C21.1116763,21.775 22.175,20.7116763 22.175,19.4 L22.175,13.824 Z M13.4,12.025 L10.6,12.025 C10.3928932,12.025 10.225,12.1928932 10.225,12.4 L10.225,14 C10.225,14.2071068 10.3928932,14.375 10.6,14.375 L13.4,14.375 C13.6071068,14.375 13.775,14.2071068 13.775,14 L13.775,12.4 C13.775,12.1928932 13.6071068,12.025 13.4,12.025 Z M19.8,7.025 L4.2,7.025 C2.88832372,7.025 1.825,8.08832372 1.825,9.4 L1.825,12.574 L8.974,12.574 L8.975,12.4 C8.975,11.5025373 9.70253728,10.775 10.6,10.775 L13.4,10.775 C14.2974627,10.775 15.025,11.5025373 15.025,12.4 L15.024,12.574 L22.175,12.574 L22.175,9.4 C22.175,8.08832372 21.1116763,7.025 19.8,7.025 Z M13.8,2.225 L10.2,2.225 C8.88832372,2.225 7.825,3.28832372 7.825,4.6 L7.825,5.775 L16.175,5.775 L16.175,4.6 C16.175,3.28832372 15.1116763,2.225 13.8,2.225 Z"></path></symbol><symbol id="dollar-sign" xmlns="http://www.w3.org/2000/svg" viewBox="0 0 12 18"><path d="M6.483,15.222 L6.483,14.074 C7.08966667,14.018 7.62166667,13.864 8.079,13.612 C8.53633333,13.36 8.891,13.0263333 9.143,12.611 C9.395,12.1956667 9.521,11.722 9.521,11.19 C9.521,10.518 9.28066667,9.96966667 8.8,9.545 C8.31933333,9.12033333 7.64966667,8.79133333 6.791,8.558 L6.791,8.558 L6.791,5.142 C7.17366667,5.226 7.51433333,5.37766667 7.813,5.597 C8.11166667,5.81633333 8.373,6.08933333 8.597,6.416 L8.597,6.416 L9.381,5.632 C9.11033333,5.22133333 8.76033333,4.87833333 8.331,4.603 C7.90166667,4.32766667 7.38833333,4.15266667 6.791,4.078 L6.791,4.078 L6.791,3 L5.769,3 L5.769,4.064 C5.22766667,4.11066667 4.74466667,4.25533333 4.32,4.498 C3.89533333,4.74066667 3.56166667,5.051 3.319,5.429 C3.07633333,5.807 2.955,6.23866667 2.955,6.724 C2.955,7.43333333 3.165,8.005 3.585,8.439 C4.005,8.873 4.63033333,9.202 5.461,9.426 L5.461,9.426 L5.461,12.996 C5.02233333,12.9213333 4.628,12.7603333 4.278,12.513 C3.928,12.2656667 3.585,11.9273333 3.249,11.498 L3.249,11.498 L2.479,12.338 C2.82433333,12.814 3.25133333,13.199 3.76,13.493 C4.26866667,13.787 4.83566667,13.9713333 5.461,14.046 L5.461,14.046 L5.461,15.222 L6.483,15.222 Z M5.769,8.278 C5.153,8.10066667 4.71666667,7.89066667 4.46,7.648 C4.20333333,7.40533333 4.075,7.088 4.075,6.696 C4.075,6.276 4.23133333,5.919 4.544,5.625 C4.85666667,5.331 5.265,5.156 5.769,5.1 L5.769,5.1 L5.769,8.278 Z M6.483,13.038 L6.483,9.678 C7.127,9.85533333 7.60766667,10.0746667 7.925,10.336 C8.24233333,10.5973333 8.401,10.952 8.401,11.4 C8.401,11.8386667 8.219,12.2073333 7.855,12.506 C7.491,12.8046667 7.03366667,12.982 6.483,13.038 L6.483,13.038 Z"></path></symbol><symbol id="delete" xmlns="http://www.w3.org/2000/svg" viewBox="0 0 16 16"><g fill-rule="evenodd"><path fill-rule="nonzero" d="M10.3314112,4.79894587 C10.5749964,4.63020081 10.9117769,4.65430725 11.1287348,4.87126519 C11.3728125,5.11534287 11.3728125,5.51107098 11.1287348,5.75514866 L11.1287348,5.75514866 L8.88320692,7.99920692 L11.1287348,10.2448513 C11.3728125,10.488929 11.3728125,10.8846571 11.1287348,11.1287348 C10.9117769,11.3456928 10.5749964,11.3697992 10.3314112,11.2010541 L10.2448513,11.1287348 L7.99920692,8.88320692 L5.75514866,11.1287348 L5.6685888,11.2010541 C5.42500363,11.3697992 5.08822313,11.3456928 4.87126519,11.1287348 C4.6271875,10.8846571 4.6271875,10.488929 4.87126519,10.2448513 L4.87126519,10.2448513 L7.11620692,7.99920692 L4.87126519,5.75514866 C4.6271875,5.51107098 4.6271875,5.11534287 4.87126519,4.87126519 C5.08822313,4.65430725 5.42500363,4.63020081 5.6685888,4.79894587 L5.75514866,4.87126519 L7.99920692,7.11620692 L10.2448513,4.87126519 Z"></path><path fill-rule="nonzero" d="M8,0.375 C3.78882878,0.375 0.375,3.78882878 0.375,8 C0.375,12.2111712 3.78882878,15.625 8,15.625 C12.2111712,15.625 15.625,12.2111712 15.625,8 C15.625,3.78882878 12.2111712,0.375 8,0.375 Z M8,1.625 C11.5208153,1.625 14.375,4.47918472 14.375,8 C14.375,11.5208153 11.5208153,14.375 8,14.375 C4.47918472,14.375 1.625,11.5208153 1.625,8 C1.625,4.47918472 4.47918472,1.625 8,1.625 Z"></path></g></symbol><symbol id="edit" xmlns="http://www.w3.org/2000/svg" viewBox="0 0 15 15"><g fill-rule="evenodd"><path fill-rule="nonzero" d="M10.0913179,1.02330781 L8.71744901,2.39717667 L2.98727398,2.39759152 C2.22866081,2.39759152 1.61368334,3.012569 1.61368334,3.77118217 L1.61368334,12.012726 C1.61368334,12.7713392 2.22866081,13.3863167 2.98727398,13.3863167 L11.2288178,13.3863167 C11.987431,13.3863167 12.6024085,12.7713392 12.6024085,12.012726 L12.60255,6.2822777 L13.9759991,4.90889448 L13.9759991,12.012726 C13.9759991,13.5299524 12.7460442,14.7599073 11.2288178,14.7599073 L2.98727398,14.7599073 C1.47004765,14.7599073 0.240092693,13.5299524 0.240092693,12.012726 L0.240092693,3.77118217 C0.240092693,2.25395584 1.47004765,1.02400088 2.98727398,1.02400088 L10.0913179,1.02330781 Z M13.8830999,3.0601726 L12.60255,4.33972718 L12.6024085,3.77118217 C12.6024085,3.012569 11.987431,2.39759152 11.2288178,2.39759152 L10.6599995,2.39717667 L11.9406005,1.11710675 C12.8860223,1.37001588 13.6304589,2.11464122 13.8830999,3.0601726 Z"></path><path d="M9.8275006,-0.768928761 C10.5861138,-0.768928761 11.2010912,-0.153951282 11.2010912,0.604661882 L11.2010912,8.45176719 C11.2010912,8.55069343 11.17972,8.64845214 11.13844,8.73835407 L10.1395726,10.9137401 C10.0604338,11.0860927 9.85655978,11.1616575 9.68420716,11.0825187 C9.60957606,11.0482505 9.54969678,10.9883712 9.51542858,10.9137401 L8.51656124,8.73835407 C8.47528117,8.64845214 8.45390996,8.55069343 8.45390996,8.45176719 L8.45390996,0.604661882 C8.45390996,-0.153951282 9.06888743,-0.768928761 9.8275006,-0.768928761 Z" transform="rotate(45 9.828 5.172)"></path></g></symbol><symbol id="emoji" xmlns="http://www.w3.org/2000/svg" viewBox="0 0 20 20"><g fill-rule="evenodd" transform="translate(1 1)"><path fill-rule="nonzero" d="M9,0 C4.02943725,0 0,4.02943725 0,9 C0,13.9705627 4.02943725,18 9,18 C13.9705627,18 18,13.9705627 18,9 C18,4.02943725 13.9705627,0 9,0 Z M9,1.54285714 C13.1184663,1.54285714 16.4571429,4.88153372 16.4571429,9 C16.4571429,13.1184663 13.1184663,16.4571429 9,16.4571429 C4.88153372,16.4571429 1.54285714,13.1184663 1.54285714,9 C1.54285714,4.88153372 4.88153372,1.54285714 9,1.54285714 Z"></path><circle cx="6.323" cy="7.25" r="1.5"></circle><circle cx="11.677" cy="7.25" r="1.5"></circle><path d="M12.3695632,11.0011275 C12.699762,11.0011275 12.939286,11.315528 12.8516189,11.6338765 C12.45211,13.0846266 10.8442732,14.0981445 9,14.0981445 C7.15572675,14.0981445 5.54788999,13.0846266 5.14838109,11.6338765 C5.06801959,11.342057 5.26258946,11.053555 5.54991303,11.0074979 L5.63043681,11.0011275 L12.3695632,11.0011275 Z"></path></g></symbol><symbol id="calendar" xmlns="http://www.w3.org/2000/svg" viewBox="0 0 18 18"><path d="M17.125,14.25 C17.125,15.6997475 15.9497475,16.875 14.5,16.875 L14.5,16.875 L3.5,16.875 C2.05025253,16.875 0.875,15.6997475 0.875,14.25 L0.875,14.25 L0.875,5.25 C0.875,3.80025253 2.05025253,2.625 3.5,2.625 L3.5,2.625 L4.759,2.625 L4.75939941,1.75 C4.75939941,1.40482203 5.03922145,1.125 5.38439941,1.125 C5.69819757,1.125 5.95798255,1.35625788 6.00262281,1.65764208 L6.00939941,1.75 L6.009,2.625 L11.99,2.625 L11.9906006,1.75 C11.9906006,1.40482203 12.2704226,1.125 12.6156006,1.125 C12.9293987,1.125 13.1891837,1.35625788 13.233824,1.65764208 L13.2406006,1.75 L13.24,2.625 L14.5,2.625 C15.893988,2.625 17.0341899,3.71158703 17.1198356,5.08399087 L17.125,5.25 Z M15.875,7.875 L2.125,7.875 L2.125,14.25 C2.125,14.9647214 2.67031408,15.552078 3.36757832,15.6187056 L3.5,15.625 L14.5,15.625 C15.2593915,15.625 15.875,15.0093915 15.875,14.25 L15.875,14.25 L15.875,7.875 Z M4.759,3.875 L3.5,3.875 C2.74060847,3.875 2.125,4.49060847 2.125,5.25 L2.125,5.25 L2.125,6.625 L15.875,6.625 L15.875,5.25 C15.875,4.53527856 15.3296859,3.94792205 14.6324217,3.88129436 L14.5,3.875 L13.24,3.875 L13.2406006,4.75 C13.2406006,5.09517797 12.9607786,5.375 12.6156006,5.375 C12.3018024,5.375 12.0420175,5.14374212 11.9973772,4.84235792 L11.9906006,4.75 L11.99,3.875 L6.009,3.875 L6.00939941,4.75 C6.00939941,5.09517797 5.72957738,5.375 5.38439941,5.375 C5.07060126,5.375 4.81081628,5.14374212 4.76617602,4.84235792 L4.75939941,4.75 L4.759,3.875 Z"></path></symbol><symbol id="exit" xmlns="http://www.w3.org/2000/svg" viewBox="0 0 12 12"><g fill-rule="evenodd"><path fill-rule="nonzero" d="M1.22702923,1.22702923 C1.49329579,0.960762664 1.90995947,0.936556613 2.20357097,1.15441107 L2.2876894,1.22702923 L10.7729708,9.7123106 C11.065864,10.0052038 11.065864,10.4800776 10.7729708,10.7729708 C10.5067042,11.0392373 10.0900405,11.0634434 9.79642903,10.8455889 L9.7123106,10.7729708 L1.22702923,2.2876894 C0.934136008,1.99479618 0.934136008,1.51992245 1.22702923,1.22702923 Z"></path><path fill-rule="nonzero" d="M9.7123106,1.22702923 C10.0052038,0.934136008 10.4800776,0.934136008 10.7729708,1.22702923 C11.0392373,1.49329579 11.0634434,1.90995947 10.8455889,2.20357097 L10.7729708,2.2876894 L2.2876894,10.7729708 C1.99479618,11.065864 1.51992245,11.065864 1.22702923,10.7729708 C0.960762664,10.5067042 0.936556613,10.0900405 1.15441107,9.79642903 L1.22702923,9.7123106 L9.7123106,1.22702923 Z"></path></g></symbol><symbol id="home" xmlns="http://www.w3.org/2000/svg" viewBox="0 0 24 24"><path fill-rule="evenodd" d="M14.9,1 C18.7659932,1 21.9,4.13400675 21.9,8 L21.9,9.54673073 C21.9,13.412724 18.7659932,16.5467307 14.9,16.5467307 L13.616,16.546 L19.0759959,10.3737585 L13.0341855,10.3737585 L15.948743,5.36963529 L8.63497502,12.9060406 L13.2218015,12.9060406 L3.15428721,23 L3.156,22.998 L3.15428721,23 L5.78821078,15.7152902 C3.59255116,14.5340028 2.1,12.2146688 2.1,9.54673073 L2.1,8 C2.1,4.13400675 5.23400675,1 9.1,1 L14.9,1 Z"></path></symbol><symbol id="home-active" xmlns="http://www.w3.org/2000/svg" viewBox="0 0 24 24"><path fill-rule="evenodd" d="M14.9,1 C18.7659932,1 21.9,4.13400675 21.9,8 L21.9,9.54673073 C21.9,13.412724 18.7659932,16.5467307 14.9,16.5467307 L13.616,16.546 L19.0759959,10.3737585 L13.0341855,10.3737585 L15.948743,5.36963529 L8.63497502,12.9060406 L13.2218015,12.9060406 L3.15428721,23 L3.156,22.998 L3.15428721,23 L5.78821078,15.7152902 C3.59255116,14.5340028 2.1,12.2146688 2.1,9.54673073 L2.1,8 C2.1,4.13400675 5.23400675,1 9.1,1 L14.9,1 Z"></path></symbol><symbol id="incoming-message" xmlns="http://www.w3.org/2000/svg" viewBox="0 0 18 18"><g transform="scale(-1 1) rotate(-45 -.543 26.003)"><path d="M1.10351281,10.5580583 C1.32047075,10.3411003 1.65725125,10.3169939 1.90083642,10.4857389 L1.98739628,10.5580583 L5.545,14.116 L9.10351281,10.5580583 C9.32047075,10.3411003 9.65725125,10.3169939 9.90083642,10.4857389 L9.98739628,10.5580583 C10.2043542,10.7750162 10.2284607,11.1117967 10.0597156,11.3553819 L9.98739628,11.4419417 L5.98739628,15.4419417 C5.77043834,15.6588997 5.43365784,15.6830061 5.19007267,15.5142611 L5.10351281,15.4419417 L1.10351281,11.4419417 C0.859435125,11.1978641 0.859435125,10.8021359 1.10351281,10.5580583 Z"></path><path d="M5.54545455,0.375 C5.8592527,0.375 6.11903768,0.606257877 6.16367794,0.907642081 L6.17045455,1 L6.17045455,15 C6.17045455,15.345178 5.89063251,15.625 5.54545455,15.625 C5.23165639,15.625 4.97187141,15.3937421 4.92723115,15.0923579 L4.92045455,15 L4.92045455,1 C4.92045455,0.654822031 5.20027658,0.375 5.54545455,0.375 Z"></path></g></symbol><symbol id="incoming" xmlns="http://www.w3.org/2000/svg" viewBox="0 0 18 18"><g fill-rule="evenodd"><path fill-rule="nonzero" d="M0.990383138,10.061451 C1.20734108,9.84449301 1.54412158,9.82038657 1.78770676,9.98913164 L1.87426661,10.061451 L5.43187033,13.6193927 L8.99038314,10.061451 C9.20734108,9.84449301 9.54412158,9.82038657 9.78770676,9.98913164 L9.87426661,10.061451 C10.0912246,10.2784089 10.115331,10.6151894 9.94658593,10.8587746 L9.87426661,10.9453344 L5.87426661,14.9453344 C5.65730868,15.1622924 5.32052817,15.1863988 5.076943,15.0176537 L4.99038314,14.9453344 L0.990383138,10.9453344 C0.746305456,10.7012567 0.746305456,10.3055286 0.990383138,10.061451 Z" transform="scale(-1 1) rotate(-45 0 25.618)"></path><path fill-rule="nonzero" d="M8.96785878,1.34285878 C9.28165694,1.34285878 9.54144192,1.57411666 9.58608218,1.87550086 L9.59285878,1.96785878 L9.59285878,15.9678588 C9.59285878,16.3130368 9.31303675,16.5928588 8.96785878,16.5928588 C8.65406063,16.5928588 8.39427565,16.3616009 8.34963539,16.0602167 L8.34285878,15.9678588 L8.34285878,1.96785878 C8.34285878,1.62268081 8.62268081,1.34285878 8.96785878,1.34285878 Z" transform="scale(-1 1) rotate(-45 0 30.618)"></path></g></symbol><symbol id="link" xmlns="http://www.w3.org/2000/svg" viewBox="0 0 20 20"><g transform="translate(.5 .5)"><path d="M4.05364522 6.4920558C4.34653844 6.19916259 4.82141217 6.19916259 5.11430539 6.4920558 5.38279084 6.76054126 5.40516463 7.18194089 5.18142675 7.47591204L5.11430539 7.55271598 2.67157288 9.99544849C1.10947571 11.5575457 1.10947571 14.0902056 2.67157288 15.6523027 4.18633376 17.1670636 6.61372666 17.2129655 8.18379858 15.7900083L8.32842712 15.6523027 10.7711596 13.2095702C11.0640529 12.916677 11.5389266 12.916677 11.8318198 13.2095702 12.1003053 13.4780557 12.1226791 13.8994553 11.8989412 14.1934265L11.8318198 14.2702304 9.3890873 16.7129629C7.24120369 18.8608465 3.75879631 18.8608465 1.6109127 16.7129629-.484583496 14.6174667-.53569316 11.2517516 1.45758371 9.09429347L1.6109127 8.93478832 4.05364522 6.4920558zM6.4920558 4.05364522C6.19916259 4.34653844 6.19916259 4.82141217 6.4920558 5.11430539 6.76054126 5.38279084 7.18194089 5.40516463 7.47591204 5.18142675L7.55271598 5.11430539 9.99544849 2.67157288C11.5575457 1.10947571 14.0902056 1.10947571 15.6523027 2.67157288 17.1670636 4.18633376 17.2129655 6.61372666 15.7900083 8.18379858L15.6523027 8.32842712 13.2095702 10.7711596C12.916677 11.0640529 12.916677 11.5389266 13.2095702 11.8318198 13.4780557 12.1003053 13.8994553 12.1226791 14.1934265 11.8989412L14.2702304 11.8318198 16.7129629 9.3890873C18.8608465 7.24120369 18.8608465 3.75879631 16.7129629 1.6109127 14.6174667-.484583496 11.2517516-.53569316 9.09429347 1.45758371L8.93478832 1.6109127 6.4920558 4.05364522z"></path><path d="M12.6186442,8.40977684 C13.0328578,8.40977684 13.3686442,8.74556328 13.3686442,9.15977684 C13.3686442,9.53947261 13.0864903,9.8532678 12.7204148,9.90293023 L12.6186442,9.90977684 L5.70955332,9.90977684 C5.29533976,9.90977684 4.95955332,9.57399041 4.95955332,9.15977684 C4.95955332,8.78008108 5.2417072,8.46628588 5.60778276,8.41662346 L5.70955332,8.40977684 L12.6186442,8.40977684 Z" transform="rotate(-45 9.164 9.16)"></path></g></symbol><symbol id="lists-active" xmlns="http://www.w3.org/2000/svg" viewBox="0 0 24 24"><path fill-rule="evenodd" d="M12,1.2 C17.9646753,1.2 22.8,6.0353247 22.8,12 C22.8,17.9646753 17.9646753,22.8 12,22.8 C6.0353247,22.8 1.2,17.9646753 1.2,12 C1.2,6.0353247 6.0353247,1.2 12,1.2 Z M7.19468522,14.7802969 C6.6369596,14.7802969 6.18483366,15.2324228 6.18483366,15.7901484 C6.18483366,16.3478741 6.6369596,16.8 7.19468522,16.8 C7.75241084,16.8 8.20453678,16.3478741 8.20453678,15.7901484 C8.20453678,15.2324228 7.75241084,14.7802969 7.19468522,14.7802969 Z M17.141932,15.1169141 L10.4095882,15.1169141 C10.0377712,15.1169141 9.73635387,15.4183314 9.73635387,15.7901484 C9.73635387,16.1619655 10.0377712,16.4633828 10.4095882,16.4633828 L17.141932,16.4633828 C17.513749,16.4633828 17.8151663,16.1619655 17.8151663,15.7901484 C17.8151663,15.4183314 17.513749,15.1169141 17.141932,15.1169141 Z M7.19468522,10.9901484 C6.6369596,10.9901484 6.18483366,11.4422744 6.18483366,12 C6.18483366,12.5577256 6.6369596,13.0098516 7.19468522,13.0098516 C7.75241084,13.0098516 8.20453678,12.5577256 8.20453678,12 C8.20453678,11.4422744 7.75241084,10.9901484 7.19468522,10.9901484 Z M17.141932,11.3267656 L10.4095882,11.3267656 C10.0377712,11.3267656 9.73635387,11.6281829 9.73635387,12 C9.73635387,12.3718171 10.0377712,12.6732344 10.4095882,12.6732344 L17.141932,12.6732344 C17.513749,12.6732344 17.8151663,12.3718171 17.8151663,12 C17.8151663,11.6281829 17.513749,11.3267656 17.141932,11.3267656 Z M7.19468522,7.2 C6.6369596,7.2 6.18483366,7.65212594 6.18483366,8.20985156 C6.18483366,8.76757717 6.6369596,9.21970312 7.19468522,9.21970312 C7.75241084,9.21970312 8.20453678,8.76757717 8.20453678,8.20985156 C8.20453678,7.65212594 7.75241084,7.2 7.19468522,7.2 Z M17.141932,7.53661719 L10.4095882,7.53661719 C10.0377712,7.53661719 9.73635387,7.83803448 9.73635387,8.20985156 C9.73635387,8.58166864 10.0377712,8.88308593 10.4095882,8.88308593 L17.141932,8.88308593 C17.513749,8.88308593 17.8151663,8.58166864 17.8151663,8.20985156 C17.8151663,7.83803448 17.513749,7.53661719 17.141932,7.53661719 Z"></path></symbol><symbol id="messages-active" xmlns="http://www.w3.org/2000/svg" viewBox="0 0 24 24"><path fill-rule="evenodd" d="M18.2,0.8 C20.9614237,0.8 23.2,3.03857625 23.2,5.8 L23.2,5.8 L23.2,23.2 L17.5867187,19.2 L5.8,19.2 C3.03857625,19.2 0.8,16.9614237 0.8,14.2 L0.8,14.2 L0.8,5.8 C0.8,3.03857625 3.03857625,0.8 5.8,0.8 L5.8,0.8 Z M6.97975178,8.8 C6.31701008,8.8 5.77975178,9.3372583 5.77975178,10 C5.77975178,10.6627417 6.31701008,11.2 6.97975178,11.2 C7.64249348,11.2 8.17975178,10.6627417 8.17975178,10 C8.17975178,9.3372583 7.64249348,8.8 6.97975178,8.8 Z M12,8.8 C11.3372583,8.8 10.8,9.3372583 10.8,10 C10.8,10.6627417 11.3372583,11.2 12,11.2 C12.6627417,11.2 13.2,10.6627417 13.2,10 C13.2,9.3372583 12.6627417,8.8 12,8.8 Z M17.0202482,8.8 C16.3575065,8.8 15.8202482,9.3372583 15.8202482,10 C15.8202482,10.6627417 16.3575065,11.2 17.0202482,11.2 C17.6829899,11.2 18.2202482,10.6627417 18.2202482,10 C18.2202482,9.3372583 17.6829899,8.8 17.0202482,8.8 Z"></path></symbol><symbol id="lists" xmlns="http://www.w3.org/2000/svg" viewBox="0 0 24 24"><path d="M12,0.575 C18.3098533,0.575 23.425,5.69014673 23.425,12 C23.425,18.3098533 18.3098533,23.425 12,23.425 C5.69014673,23.425 0.575,18.3098533 0.575,12 C0.575,5.69014673 5.69014673,0.575 12,0.575 Z M12,1.825 C6.38050267,1.825 1.825,6.38050267 1.825,12 C1.825,17.6194973 6.38050267,22.175 12,22.175 C17.6194973,22.175 22.175,17.6194973 22.175,12 C22.175,6.38050267 17.6194973,1.825 12,1.825 Z M7.19468522,14.7802969 C7.75241084,14.7802969 8.20453678,15.2324228 8.20453678,15.7901484 C8.20453678,16.3478741 7.75241084,16.8 7.19468522,16.8 C6.6369596,16.8 6.18483366,16.3478741 6.18483366,15.7901484 C6.18483366,15.2324228 6.6369596,14.7802969 7.19468522,14.7802969 Z M17.141932,15.1169141 C17.513749,15.1169141 17.8151663,15.4183314 17.8151663,15.7901484 C17.8151663,16.1619655 17.513749,16.4633828 17.141932,16.4633828 L17.141932,16.4633828 L10.4095882,16.4633828 C10.0377712,16.4633828 9.73635387,16.1619655 9.73635387,15.7901484 C9.73635387,15.4183314 10.0377712,15.1169141 10.4095882,15.1169141 L10.4095882,15.1169141 Z M7.19468522,10.9901484 C7.75241084,10.9901484 8.20453678,11.4422744 8.20453678,12 C8.20453678,12.5577256 7.75241084,13.0098516 7.19468522,13.0098516 C6.6369596,13.0098516 6.18483366,12.5577256 6.18483366,12 C6.18483366,11.4422744 6.6369596,10.9901484 7.19468522,10.9901484 Z M17.141932,11.3267656 C17.513749,11.3267656 17.8151663,11.6281829 17.8151663,12 C17.8151663,12.3718171 17.513749,12.6732344 17.141932,12.6732344 L17.141932,12.6732344 L10.4095882,12.6732344 C10.0377712,12.6732344 9.73635387,12.3718171 9.73635387,12 C9.73635387,11.6281829 10.0377712,11.3267656 10.4095882,11.3267656 L10.4095882,11.3267656 Z M7.19468522,7.2 C7.75241084,7.2 8.20453678,7.65212594 8.20453678,8.20985156 C8.20453678,8.76757717 7.75241084,9.21970312 7.19468522,9.21970312 C6.6369596,9.21970312 6.18483366,8.76757717 6.18483366,8.20985156 C6.18483366,7.65212594 6.6369596,7.2 7.19468522,7.2 Z M17.141932,7.53661719 C17.513749,7.53661719 17.8151663,7.83803448 17.8151663,8.20985156 C17.8151663,8.58166864 17.513749,8.88308593 17.141932,8.88308593 L17.141932,8.88308593 L10.4095882,8.88308593 C10.0377712,8.88308593 9.73635387,8.58166864 9.73635387,8.20985156 C9.73635387,7.83803448 10.0377712,7.53661719 10.4095882,7.53661719 L10.4095882,7.53661719 Z"></path></symbol><symbol id="messages-icon" xmlns="http://www.w3.org/2000/svg" viewBox="0 0 21 21"><g fill-rule="evenodd"><path fill-rule="nonzero" d="M10.2814516,1.7503755 L2.49676821,1.75566107 C1.65593351,1.80391745 0.902441459,2.17846004 0.361375186,2.75491794 C-0.172789295,3.32402259 -0.5,4.08970676 -0.5,4.93182711 L-0.5,15.8008054 L3.21200404,13.2616517 L6.74487751,13.26133 L6.74596773,8.81200891 C6.74596774,7.7952816 7.15802825,6.8749187 7.82423995,6.208707 C8.49045166,5.54249529 9.41081456,5.13043478 10.4274194,5.13043478 L13.4569827,5.13037664 C13.5186617,4.10805855 13.0978446,3.18160524 12.4000787,2.55838599 C11.8374826,2.0558954 11.095156,1.7503755 10.2814516,1.7503755 Z"></path><path fill-rule="nonzero" d="M18.0274194,6.13043478 C19.5083442,6.13043478 20.708871,7.33096156 20.708871,8.8118864 L20.708871,8.8118864 L20.708871,13.9602735 C20.708871,15.4411983 19.5083442,16.6417251 18.0274194,16.6417251 L18.0274194,16.6417251 L10.8033014,16.6417251 C10.7236085,16.6417251 10.6458996,16.6665801 10.5809989,16.712828 L10.5809989,16.712828 L7.74596774,18.733059 L7.74596774,8.8118864 C7.74596774,7.33096156 8.94649452,6.13043478 10.4274194,6.13043478 L10.4274194,6.13043478 Z M11.150493,10.6505961 C10.7442965,10.6505961 10.4150092,10.9798834 10.4150092,11.3860799 C10.4150092,11.7922765 10.7442965,12.1215638 11.150493,12.1215638 C11.5566895,12.1215638 11.8859769,11.7922765 11.8859769,11.3860799 C11.8859769,10.9798834 11.5566895,10.6505961 11.150493,10.6505961 Z M14.2274194,10.6505961 C13.8212228,10.6505961 13.4919355,10.9798834 13.4919355,11.3860799 C13.4919355,11.7922765 13.8212228,12.1215638 14.2274194,12.1215638 C14.6336159,12.1215638 14.9629032,11.7922765 14.9629032,11.3860799 C14.9629032,10.9798834 14.6336159,10.6505961 14.2274194,10.6505961 Z M17.3043457,10.6505961 C16.8981492,10.6505961 16.5688618,10.9798834 16.5688618,11.3860799 C16.5688618,11.7922765 16.8981492,12.1215638 17.3043457,12.1215638 C17.7105422,12.1215638 18.0398296,11.7922765 18.0398296,11.3860799 C18.0398296,10.9798834 17.7105422,10.6505961 17.3043457,10.6505961 Z"></path></g></symbol><symbol id="messages" xmlns="http://www.w3.org/2000/svg" viewBox="0 0 24 24"><path d="M18.2,0.175 C21.3066017,0.175 23.825,2.69339828 23.825,5.8 L23.825,5.8 L23.825,23.2 C23.825,23.7080377 23.2510337,24.0038177 22.837296,23.70899 L22.837296,23.70899 L17.386814,19.825 L5.8,19.825 C2.69339828,19.825 0.175,17.3066017 0.175,14.2 L0.175,14.2 L0.175,5.8 C0.175,2.69339828 2.69339828,0.175 5.8,0.175 L5.8,0.175 Z M18.2,1.425 L5.8,1.425 C3.38375422,1.425 1.425,3.38375422 1.425,5.8 L1.425,5.8 L1.425,14.2 C1.425,16.6162458 3.38375422,18.575 5.8,18.575 L5.8,18.575 L17.5867188,18.575 C17.7167441,18.575 17.8435322,18.6155529 17.9494228,18.69101 L17.9494228,18.69101 L22.575,21.9871764 L22.575,5.8 C22.575,3.38375422 20.6162458,1.425 18.2,1.425 L18.2,1.425 Z M6.97975178,8.8 C7.64249348,8.8 8.17975178,9.3372583 8.17975178,10 C8.17975178,10.6627417 7.64249348,11.2 6.97975178,11.2 C6.31701008,11.2 5.77975178,10.6627417 5.77975178,10 C5.77975178,9.3372583 6.31701008,8.8 6.97975178,8.8 Z M12,8.8 C12.6627417,8.8 13.2,9.3372583 13.2,10 C13.2,10.6627417 12.6627417,11.2 12,11.2 C11.3372583,11.2 10.8,10.6627417 10.8,10 C10.8,9.3372583 11.3372583,8.8 12,8.8 Z M17.0202482,8.8 C17.6829899,8.8 18.2202482,9.3372583 18.2202482,10 C18.2202482,10.6627417 17.6829899,11.2 17.0202482,11.2 C16.3575065,11.2 15.8202482,10.6627417 15.8202482,10 C15.8202482,9.3372583 16.3575065,8.8 17.0202482,8.8 Z"></path></symbol><symbol id="new-message" xmlns="http://www.w3.org/2000/svg" viewBox="0 0 10 10"><circle cx="5" cy="5" r="5" fill-rule="evenodd"></circle></symbol><symbol id="new" xmlns="http://www.w3.org/2000/svg" viewBox="0 0 22 22"><path fill-rule="evenodd" d="M11,0.423076923 C16.8414733,0.423076923 21.5769231,5.15852668 21.5769231,11 C21.5769231,16.8414733 16.8414733,21.5769231 11,21.5769231 C5.15852668,21.5769231 0.423076923,16.8414733 0.423076923,11 C0.423076923,5.15852668 5.15852668,0.423076923 11,0.423076923 Z M11,6.01923077 C10.5857864,6.01923077 10.25,6.35501721 10.25,6.76923077 L10.25,6.76923077 L10.2490769,10.2490769 L6.76923077,10.25 L6.66746021,10.2568466 C6.30138465,10.306509 6.01923077,10.6203042 6.01923077,11 C6.01923077,11.4142136 6.35501721,11.75 6.76923077,11.75 L6.76923077,11.75 L10.2490769,11.7490769 L10.25,15.2307692 L10.2568466,15.3325398 C10.306509,15.6986153 10.6203042,15.9807692 11,15.9807692 C11.4142136,15.9807692 11.75,15.6449828 11.75,15.2307692 L11.75,15.2307692 L11.7490769,11.7490769 L15.2307692,11.75 L15.3325398,11.7431534 C15.6986153,11.693491 15.9807692,11.3796958 15.9807692,11 C15.9807692,10.5857864 15.6449828,10.25 15.2307692,10.25 L15.2307692,10.25 L11.7490769,10.2490769 L11.75,6.76923077 L11.7431534,6.66746021 C11.693491,6.30138465 11.3796958,6.01923077 11,6.01923077 Z"></path></symbol><symbol id="online" viewBox="0 0 12 12" version="1.1" xmlns="http://www.w3.org/2000/svg" xmlns:xlink="http://www.w3.org/1999/xlink"><title>online-8px</title><desc>Created with Sketch.</desc><g stroke-width="1" fill-rule="evenodd"><circle cx="6" cy="6" r="4"></circle><path d="M6,0 C2.6862915,0 0,2.6862915 0,6 C0,9.3137085 2.6862915,12 6,12 C9.3137085,12 12,9.3137085 12,6 C12,2.6862915 9.3137085,0 6,0 Z M6,2 C8.209139,2 10,3.790861 10,6 C10,8.209139 8.209139,10 6,10 C3.790861,10 2,8.209139 2,6 C2,3.790861 3.790861,2 6,2 Z" fill-rule="nonzero"></path></g></symbol><symbol id="outgoing" xmlns="http://www.w3.org/2000/svg" viewBox="0 0 18 18"><g fill-rule="evenodd"><path fill-rule="nonzero" d="M8.12573339,3.05466557 C8.34269132,2.83770763 8.67947183,2.8136012 8.923057,2.98234626 L9.00961686,3.05466557 L12.5672206,6.61260731 L16.1257334,3.05466557 C16.3426913,2.83770763 16.6794718,2.8136012 16.923057,2.98234626 L17.0096169,3.05466557 C17.2265748,3.27162351 17.2506812,3.60840401 17.0819362,3.85198919 L17.0096169,3.93854905 L13.0096169,7.93854905 C12.7926589,8.15550699 12.4558784,8.17961343 12.2122932,8.01086836 L12.1257334,7.93854905 L8.12573339,3.93854905 C7.8816557,3.69447137 7.8816557,3.29874326 8.12573339,3.05466557 Z" transform="scale(1 -1) rotate(-45 -.702 0)"></path><path fill-rule="nonzero" d="M9.03214122,1.40714122 C9.34593937,1.40714122 9.60572435,1.63839909 9.65036461,1.9397833 L9.65714122,2.03214122 L9.65714122,16.0321412 C9.65714122,16.3773192 9.37731919,16.6571412 9.03214122,16.6571412 C8.71834306,16.6571412 8.45855808,16.4258833 8.41391782,16.1244991 L8.40714122,16.0321412 L8.40714122,2.03214122 C8.40714122,1.68696325 8.68696325,1.40714122 9.03214122,1.40714122 Z" transform="scale(1 -1) rotate(-45 -12.773 0)"></path></g></symbol><symbol id="radio-not-selected" xmlns="http://www.w3.org/2000/svg" viewBox="0 0 18 18"><path d="M9,0 C13.9705627,0 18,4.02943725 18,9 C18,13.9705627 13.9705627,18 9,18 C4.02943725,18 0,13.9705627 0,9 C0,4.02943725 4.02943725,0 9,0 Z M9,1 C4.581722,1 1,4.581722 1,9 C1,13.418278 4.581722,17 9,17 C13.418278,17 17,13.418278 17,9 C17,4.581722 13.418278,1 9,1 Z"></path></symbol><symbol id="search" xmlns="http://www.w3.org/2000/svg" viewBox="0 0 14 14"><path d="M2.09293763,2.04288802 C4.13290259,0.00292306406 7.44033928,0.00292306406 9.48030424,2.04288802 C11.2960939,3.85867773 11.4956342,6.6786761 10.078925,8.71517424 L13.1441429,11.7799789 C13.5346672,12.1705032 13.5346672,12.8036682 13.1441429,13.1941925 C12.7815132,13.5568222 12.2096678,13.5827243 11.8171501,13.2718988 L11.7299293,13.1941925 L8.64513258,10.1099587 C6.61905932,11.4371823 3.87329729,11.2106143 2.09293763,9.43025463 C0.0529726679,7.39028967 0.0529726679,4.08285298 2.09293763,2.04288802 Z M8.06609068,3.45710159 C6.8071743,2.19818521 4.76606757,2.19818521 3.50715119,3.45710159 C2.24823481,4.71601796 2.24823481,6.75712469 3.50715119,8.01604107 C4.76606757,9.27495745 6.8071743,9.27495745 8.06609068,8.01604107 C9.32500705,6.75712469 9.32500705,4.71601796 8.06609068,3.45710159 Z"></path></symbol><symbol id="radio-selected" xmlns="http://www.w3.org/2000/svg" viewBox="0 0 18 18"><g fill-rule="evenodd"><path fill-rule="nonzero" d="M9,0 C13.9705627,0 18,4.02943725 18,9 C18,13.9705627 13.9705627,18 9,18 C4.02943725,18 0,13.9705627 0,9 C0,4.02943725 4.02943725,0 9,0 Z M9,1 C4.581722,1 1,4.581722 1,9 C1,13.418278 4.581722,17 9,17 C13.418278,17 17,13.418278 17,9 C17,4.581722 13.418278,1 9,1 Z"></path><circle cx="9" cy="9" r="5"></circle></g></symbol><symbol id="select-time" xmlns="http://www.w3.org/2000/svg" viewBox="0 0 18 18"><g transform="translate(.5 .5)"><path d="M8.5,0.375 C4.01268641,0.375 0.375,4.01268641 0.375,8.5 C0.375,12.9873136 4.01268641,16.625 8.5,16.625 C12.9873136,16.625 16.625,12.9873136 16.625,8.5 C16.625,4.01268641 12.9873136,0.375 8.5,0.375 Z M8.5,1.625 C12.2969577,1.625 15.375,4.70304235 15.375,8.5 C15.375,12.2969577 12.2969577,15.375 8.5,15.375 C4.70304235,15.375 1.625,12.2969577 1.625,8.5 C1.625,4.70304235 4.70304235,1.625 8.5,1.625 Z"></path><path d="M8.5,3.91785714 C8.81379815,3.91785714 9.07358314,4.14911502 9.1182234,4.45049922 L9.125,4.54285714 L9.125,8.139 L12.2766016,9.95873412 C12.5456412,10.1140642 12.655507,10.4392149 12.5489724,10.7206138 L12.5053675,10.8125 C12.3500374,11.0815396 12.0248868,11.1914054 11.7434878,11.0848707 L11.6516016,11.0412659 L7.875,8.86084392 L7.875,4.54285714 C7.875,4.19767917 8.15482203,3.91785714 8.5,3.91785714 Z"></path></g></symbol><symbol id="select-script" xmlns="http://www.w3.org/2000/svg" viewBox="0 0 12 12"><path d="M6,0 C9.3137085,0 12,2.6862915 12,6 C12,9.3137085 9.3137085,12 6,12 C2.6862915,12 0,9.3137085 0,6 C0,2.6862915 2.6862915,0 6,0 Z M6,1 C3.23857625,1 1,3.23857625 1,6 C1,8.76142375 3.23857625,11 6,11 C8.76142375,11 11,8.76142375 11,6 C11,3.23857625 8.76142375,1 6,1 Z M6,3 C6.24545989,3 6.44960837,3.17687516 6.49194433,3.41012437 L6.5,3.5 L6.5,5.499 L8.5,5.5 C8.77614237,5.5 9,5.72385763 9,6 C9,6.24545989 8.82312484,6.44960837 8.58987563,6.49194433 L8.5,6.5 L6.5,6.499 L6.5,8.5 C6.5,8.77614237 6.27614237,9 6,9 C5.75454011,9 5.55039163,8.82312484 5.50805567,8.58987563 L5.5,8.5 L5.5,6.499 L3.5,6.5 C3.22385763,6.5 3,6.27614237 3,6 C3,5.75454011 3.17687516,5.55039163 3.41012437,5.50805567 L3.5,5.5 L5.5,5.499 L5.5,3.5 C5.5,3.22385763 5.72385763,3 6,3 Z"></path></symbol><symbol id="settings-active" xmlns="http://www.w3.org/2000/svg" viewBox="0 0 24 24"><path fill-rule="evenodd" d="M12.6455822,0.9609375 C13.0094092,0.9609375 13.3445292,1.15853908 13.5206328,1.4769061 L14.3284587,2.93732475 C14.5601087,3.35611064 14.9271028,3.68382159 15.3693336,3.86678415 C15.811597,4.04976023 16.3028432,4.07733093 16.7628035,3.94499123 L18.3656961,3.48380718 C18.7153423,3.38320703 19.0920383,3.48044636 19.3493055,3.73771357 L20.2624354,4.65084348 C20.5196234,4.90803152 20.6168881,5.28458238 20.5164282,5.63415238 L20.0616866,7.21651509 C19.9275563,7.6832479 19.9562258,8.18172923 20.1429819,8.63000664 C20.329801,9.07843537 20.6628424,9.45046643 21.0879381,9.68559043 L22.5230681,10.4793728 C22.8414496,10.6554722 23.0390625,10.9906001 23.0390625,11.3544376 L23.0390625,12.6455286 C23.0390625,13.009384 22.8414302,13.3445256 22.5230243,13.5206177 L21.1169345,14.2982456 C20.6826328,14.5384329 20.3429653,14.9192264 20.1537594,15.378039 C19.9644937,15.8369966 19.9361116,16.3464961 20.0732311,16.8236353 L20.5164302,18.3658489 C20.6168889,18.7154183 20.519624,19.0919679 20.2624366,19.3491553 L19.3491295,20.2624624 C19.0919558,20.5196361 18.7154313,20.6169053 18.3658751,20.5164709 L16.8456737,20.0796867 C16.3614873,19.9405703 15.8444059,19.970042 15.379162,20.1632724 C14.9138574,20.3565281 14.5277884,20.7017816 14.2839563,21.1426921 L13.5206143,22.5230086 C13.3445248,22.8414233 13.0093784,23.0390625 12.6455165,23.0390625 L11.3543545,23.0390625 C10.9905612,23.0390625 10.6554666,22.8414971 10.4793493,22.5231761 L9.71533173,21.142262 C9.4714496,20.7014603 9.08542373,20.3562847 8.62019977,20.1630198 C8.15505658,19.9697884 7.63806076,19.9403352 7.15398161,20.0794895 L5.63418843,20.5163722 C5.28460031,20.6168655 4.90801492,20.5196068 4.65080804,20.2623999 L3.73766056,19.3492525 C3.48042152,19.0920134 3.38317317,18.7153691 3.48372341,18.36575 L3.92701455,16.8244007 C4.06423313,16.3472836 4.03587736,15.8377641 3.84656509,15.3788191 C3.65730263,14.9199949 3.3176388,14.5391695 2.8833547,14.2988838 L1.47680904,13.5206539 C1.15849632,13.3445341 0.9609375,13.0094442 0.9609375,12.6456569 L0.9609375,11.3543108 C0.9609375,10.9905407 1.15847787,10.6554637 1.47676716,10.479337 L2.91235108,9.68495076 C3.33743158,9.44973071 3.67047103,9.07766748 3.85734619,8.62922621 C4.04414847,8.18095984 4.07279253,7.68245715 3.93856514,7.21574436 L3.48372499,5.634251 C3.38317381,5.28463141 3.48042199,4.9079861 3.73766156,4.65074653 L4.65070636,3.73770174 C4.90796728,3.48044081 5.28465173,3.38319947 5.63429185,3.48378847 L7.23773124,3.94508672 C7.69740702,4.07733221 8.18834562,4.04976272 8.63032503,3.86688327 C9.07228147,3.68401332 9.43907137,3.35653316 9.67065998,2.93804347 L10.4793316,1.47674216 C10.6554625,1.15846685 10.9905317,0.9609375 11.3542916,0.9609375 L12.6455822,0.9609375 Z M12,7.61943359 C9.5699471,7.61943359 7.6,9.58938069 7.6,12.0194336 C7.6,14.4494865 9.5699471,16.4194336 12,16.4194336 C14.4300529,16.4194336 16.4,14.4494865 16.4,12.0194336 C16.4,9.58938069 14.4300529,7.61943359 12,7.61943359 Z"></path></symbol><symbol id="send-message" xmlns="http://www.w3.org/2000/svg" viewBox="0 0 22 21"><path fill-rule="evenodd" d="M11.8782775,1.90163685 L19.5692196,18.093094 C19.8061812,18.5919604 19.5938653,19.1884668 19.094999,19.4254283 C18.7976373,19.5666751 18.4498068,19.5525197 18.1649059,19.3875771 L11.4760363,15.5150736 C11.1661089,15.335642 10.7838911,15.335642 10.4739637,15.5150736 L3.78509413,19.3875771 C3.30713239,19.6642918 2.69534627,19.5011488 2.41863158,19.0231871 C2.25368893,18.7382861 2.23953356,18.3904557 2.38078036,18.093094 L10.0717225,1.90163685 C10.308684,1.40277046 10.9051904,1.19045463 11.4040568,1.42741616 C11.6120041,1.52619112 11.7795025,1.69368957 11.8782775,1.90163685 Z" transform="rotate(90 10.975 10.5)"></path></symbol><symbol id="outgoing-message" xmlns="http://www.w3.org/2000/svg" viewBox="0 0 18 18"><g transform="scale(1 -1) rotate(-45 -12.564 -6.432)"><path d="M0.103512807,9.55805826 C0.320470747,9.34110032 0.657251248,9.31699388 0.900836424,9.48573895 L0.987396284,9.55805826 L4.545,13.116 L8.10351281,9.55805826 C8.32047075,9.34110032 8.65725125,9.31699388 8.90083642,9.48573895 L8.98739628,9.55805826 C9.20435422,9.7750162 9.22846066,10.1117967 9.0597156,10.3553819 L8.98739628,10.4419417 L4.98739628,14.4419417 C4.77043834,14.6588997 4.43365784,14.6830061 4.19007267,14.5142611 L4.10351281,14.4419417 L0.103512807,10.4419417 C-0.140564875,10.1978641 -0.140564875,9.80213594 0.103512807,9.55805826 Z"></path><path d="M4.54545455,-0.625 C4.8592527,-0.625 5.11903768,-0.393742123 5.16367794,-0.0923579193 L5.17045455,0 L5.17045455,14 C5.17045455,14.345178 4.89063251,14.625 4.54545455,14.625 C4.23165639,14.625 3.97187141,14.3937421 3.92723115,14.0923579 L3.92045455,14 L3.92045455,0 C3.92045455,-0.345177969 4.20027658,-0.625 4.54545455,-0.625 Z"></path></g></symbol><symbol id="settings" xmlns="http://www.w3.org/2000/svg" viewBox="0 0 24 24"><path d="M12.6455822,0.3359375 C13.236801,0.3359375 13.781371,0.657040067 14.0675395,1.17438647 L14.8753653,2.63480512 C15.0384757,2.92968242 15.2968852,3.16043165 15.6082706,3.28926003 C15.9198513,3.41816921 16.265941,3.43759314 16.5899894,3.344358 L18.192882,2.88317394 C18.761057,2.7196987 19.373188,2.87771261 19.7912472,3.29577183 L20.7043771,4.20890174 C21.1223077,4.6268323 21.2803628,5.23872746 21.1171154,5.80677871 L20.6623738,7.38914142 C20.5674326,7.71950812 20.5877257,8.07234731 20.7199169,8.38965075 C20.8524806,8.70784808 21.088801,8.97183493 21.3904417,9.13867488 L22.8255717,9.93245721 C23.3429415,10.2186188 23.6640625,10.7632017 23.6640625,11.3544376 L23.6640625,12.6455286 C23.6640625,13.2367937 23.3429101,13.7813987 22.8255004,14.0675484 L21.4194106,14.8451763 C21.1092534,15.0167065 20.8666794,15.2886507 20.7315577,15.6163124 C20.5960891,15.9448153 20.5757743,16.3094941 20.6739188,16.6510106 L21.1171179,18.1932242 C21.2803633,18.7612744 21.1223079,19.3731675 20.7043784,19.791097 L19.7910712,20.7044041 C19.373164,21.1223114 18.7613117,21.2803739 18.1932829,21.1171679 L16.6730815,20.6803837 C16.3250275,20.5803808 15.9533271,20.6015664 15.6188898,20.7404687 C15.2841045,20.8795157 15.0063289,21.1279246 14.8308924,21.4451584 L14.0675504,22.825475 C13.7814049,23.3428989 13.2367921,23.6640625 12.6455165,23.6640625 L11.3543545,23.6640625 C10.7631903,23.6640625 10.2186617,23.3430188 9.93247113,22.8257471 L9.16845352,21.444833 C8.99296265,21.1276442 8.71518907,20.8792654 8.38042673,20.7401973 C8.04612733,20.6013215 7.67456134,20.5801534 7.32665262,20.6801639 L5.80685944,21.1170466 C5.23877873,21.2803481 4.62682748,21.1223029 4.2088663,20.7043417 L3.29571882,19.7911942 C2.87770539,19.3731808 2.71967682,18.7611337 2.88307095,18.1930027 L3.32636209,16.6516534 C3.42456017,16.3102129 3.40426786,15.9455842 3.26878984,15.6171482 C3.1336008,15.2894128 2.89098095,15.0173915 2.58077441,14.8457569 L1.17422875,14.067527 C0.656970581,13.7813324 0.3359375,13.2368112 0.3359375,12.6456569 L0.3359375,11.3543108 C0.3359375,10.7631844 0.656940596,10.2186843 1.17416069,9.93247845 L2.60974461,9.13809216 C2.91143626,8.97114984 3.14780378,8.70708605 3.28043436,8.38881459 C3.41263441,8.0715763 3.43290583,7.71878575 3.33791305,7.38849291 L2.8830729,5.80699955 C2.71967723,5.23886773 2.87770552,4.6268191 3.29571983,4.20880479 L4.20876462,3.29576 C4.62681362,2.877711 5.23892585,2.71969381 5.80709105,2.88315095 L7.41053044,3.34444919 C7.73429015,3.43759258 8.08006896,3.41817479 8.39136473,3.28936879 C8.70252308,3.16061965 8.96076062,2.93005803 9.12381003,2.63542138 L9.93248168,1.17412007 C10.2186943,0.6569227 10.7631818,0.3359375 11.3542916,0.3359375 L12.6455822,0.3359375 Z M12.6455822,1.5859375 L11.3542916,1.5859375 C11.2178816,1.5859375 11.0922306,1.66001101 11.0261816,1.77936425 L10.2175099,3.24066556 C9.91738211,3.78300829 9.44203985,4.207407 8.86928533,4.44439775 C8.29662229,4.68135066 7.66052389,4.71707183 7.06493205,4.54572424 L5.46149266,4.084426 C5.33037761,4.04670512 5.18912095,4.08317063 5.0926481,4.17964347 L4.1796033,5.09268827 C4.08313846,5.18915311 4.0466704,5.3303951 4.08437709,5.46150245 L4.53921724,7.0429958 C4.71267923,7.64612856 4.67566252,8.29034337 4.43425802,8.86963782 C4.19313828,9.44824892 3.76342689,9.92831158 3.21495754,10.2318094 L1.77937362,11.0261956 C1.66001514,11.0922432 1.5859375,11.217897 1.5859375,11.3543108 L1.5859375,12.6456569 C1.5859375,12.7820772 1.66002206,12.9077359 1.77938933,12.9737808 L3.18593498,13.7520107 C3.74429665,14.0609475 4.18100447,14.550577 4.42434034,15.14049 C4.66748686,15.729944 4.70390609,16.3843544 4.52766701,16.997148 L4.08437587,18.5384973 C4.04666953,18.6696045 4.08313766,18.8108461 4.1796023,18.9073107 L5.09274978,19.8204582 C5.18920236,19.9169108 5.33042188,19.9533828 5.46151743,19.9156978 L6.98131061,19.4788151 C7.60156019,19.300517 8.26398583,19.3382553 8.85997281,19.5858422 C9.45565839,19.833304 9.94993654,20.2752763 10.2622099,20.839691 L11.0262276,22.2206051 C11.0922715,22.3399755 11.217932,22.4140625 11.3543545,22.4140625 L12.6455165,22.4140625 C12.7819647,22.4140625 12.9076446,22.3399478 12.9736782,22.2205423 L13.7370202,20.8402258 C14.0492478,20.2756387 14.5436103,19.8335406 15.1394342,19.5860761 C15.7354847,19.3385176 16.3979471,19.3007597 17.018266,19.4789897 L18.5384674,19.9157738 C18.6695509,19.9534368 18.8107476,19.9169608 18.9071878,19.8205207 L19.8204949,18.9072135 C19.9169402,18.8107683 19.9534145,18.6695621 19.9157425,18.5384736 L19.4725435,16.9962601 C19.2964489,16.3834982 19.3328984,15.7291779 19.5759612,15.1397656 C19.8192513,14.5498021 20.2560123,14.0601594 20.8144584,13.7513148 L22.2205482,12.973687 C22.3399504,12.9076524 22.4140625,12.7819744 22.4140625,12.6455286 L22.4140625,11.3544376 C22.4140625,11.2179986 22.3399577,11.0923256 22.2205646,11.0262883 L20.7854346,10.232506 C20.2368837,9.92909793 19.8071214,9.44902266 19.5660468,8.87036252 C19.324726,8.29111115 19.28768,7.64698769 19.4609994,7.04388877 L19.9157409,5.46152605 C19.9534134,5.3304373 19.9169392,5.18923073 19.8204936,5.09278521 L18.9073637,4.17965531 C18.8108885,4.0831801 18.6696275,4.04671535 18.5385102,4.08444041 L16.9356176,4.54562447 C16.3397455,4.71706871 15.7033428,4.68135126 15.1303966,4.44430828 C14.5573204,4.20721153 14.0817417,3.78253886 13.781552,3.23984437 L12.9737262,1.77942572 C12.9076873,1.66003809 12.7820173,1.5859375 12.6455822,1.5859375 Z M12,6.99443359 C14.7752309,6.99443359 17.025,9.24420273 17.025,12.0194336 C17.025,14.7946645 14.7752309,17.0444336 12,17.0444336 C9.22476913,17.0444336 6.975,14.7946645 6.975,12.0194336 C6.975,9.24420273 9.22476913,6.99443359 12,6.99443359 Z M12,8.24443359 C9.91512507,8.24443359 8.225,9.93455866 8.225,12.0194336 C8.225,14.1043085 9.91512507,15.7944336 12,15.7944336 C14.0848749,15.7944336 15.775,14.1043085 15.775,12.0194336 C15.775,9.93455866 14.0848749,8.24443359 12,8.24443359 Z"></path></symbol><symbol id="textsurge-login-logo" viewBox="0 0 161 55" version="1.1" xmlns="http://www.w3.org/2000/svg" xmlns:xlink="http://www.w3.org/1999/xlink"><title>textsurge-login-logo</title><desc>Created with Sketch.</desc><g stroke-width="1" fill-rule="evenodd"><g transform="translate(-57.000000, -78.000000)"><g transform="translate(57.000000, 78.000000)"><g><path d="M31.9769416,0 C41.560092,0 49.3287703,7.76867836 49.3287703,17.3518288 L49.3287703,21.1859154 C49.3287703,30.7690658 41.560092,38.5377442 31.9769416,38.5377442 L28.7941204,38.5359329 L42.3285367,23.2359788 L27.3518996,23.2359788 L34.5766001,10.8315948 L16.4469929,29.5130826 L27.8169683,29.5130826 L2.86128485,54.534319 L9.39034069,36.4767422 C3.94766786,33.5485285 0.247883268,27.7992875 0.247883268,21.1859154 L0.247883268,17.3518288 C0.247883268,7.76867836 8.01656162,0 17.599712,0 L31.9769416,0 Z"></path></g><path d="M65.8363643,27.4906393 L65.8363643,17.7908584 L68.6600783,17.7908584 L68.6600783,16.2173384 L65.8363643,16.2173384 L65.8363643,13.2858491 L64.1981791,13.2858491 L64.1981791,16.2173384 L61.6762361,16.2173384 L61.6762361,17.7908584 L64.1981791,17.7908584 L64.1981791,27.4906393 L65.8363643,27.4906393 Z M75.6439205,27.70619 C76.5061232,27.70619 77.3252158,27.5445269 78.1011983,27.2212009 C78.8771807,26.8978749 79.5166478,26.4919211 80.0195994,26.0033395 L80.0195994,26.0033395 L79.1789517,24.8178108 C78.5466697,25.3495025 77.9682753,25.7051611 77.4437687,25.8847867 C76.919262,26.0644122 76.3839778,26.154225 75.8379161,26.154225 C74.5733521,26.154225 73.5602638,25.7949739 72.7986514,25.0764716 C72.037039,24.3579693 71.6203077,23.3879912 71.5484574,22.1665374 L71.5484574,22.1665374 L80.4722558,22.1665374 L80.4938109,21.41211 C80.522551,20.3487266 80.3285553,19.4110811 79.911824,18.5991735 C79.4950927,17.7872659 78.9023283,17.1477989 78.1335309,16.6807724 C77.3647334,16.2137459 76.4773831,15.9802327 75.4714799,15.9802327 C74.3793564,15.9802327 73.4093784,16.235301 72.5615457,16.7454376 C71.713713,17.2555742 71.0526909,17.956114 70.5784794,18.8470568 C70.1042678,19.7379996 69.8671621,20.7582729 69.8671621,21.9078765 C69.8671621,23.0431101 70.1114529,24.0490133 70.6000344,24.9255861 C71.088616,25.8021589 71.7676006,26.4847361 72.6369884,26.9733176 C73.5063762,27.4618992 74.5086868,27.70619 75.6439205,27.70619 Z M78.8340706,20.787013 L71.6131226,20.787013 C71.7855632,19.7236296 72.2094795,18.9153145 72.8848717,18.3620678 C73.5602638,17.808821 74.4152815,17.5321976 75.4499248,17.5321976 C76.139687,17.5321976 76.7324514,17.6830831 77.228218,17.9848541 C77.7239846,18.286625 78.1083833,18.6782088 78.3814142,19.1596053 C78.654445,19.6410018 78.8053305,20.1403609 78.8340706,20.6576826 L78.8340706,20.6576826 L78.8340706,20.787013 Z M83.5761857,27.4906393 L86.9603314,23.007185 L90.4522525,27.4906393 L92.499984,27.4906393 L88.0596399,21.7785461 L92.2197681,16.2173384 L90.2367018,16.2173384 L87.132772,20.5930173 L83.7486262,16.2173384 L81.6793396,16.2173384 L86.0119084,21.8001012 L81.5931194,27.4906393 L83.5761857,27.4906393 Z M97.6085353,27.4906393 L97.6085353,17.7908584 L100.432249,17.7908584 L100.432249,16.2173384 L97.6085353,16.2173384 L97.6085353,13.2858491 L95.9703501,13.2858491 L95.9703501,16.2173384 L93.448407,16.2173384 L93.448407,17.7908584 L95.9703501,17.7908584 L95.9703501,27.4906393 L97.6085353,27.4906393 Z M106.230563,27.70619 C107.078395,27.70619 107.840008,27.551712 108.5154,27.242756 C109.190792,26.9338 109.726076,26.5062911 110.121253,25.9602294 C110.516429,25.4141677 110.714017,24.7962557 110.714017,24.1064935 C110.714017,23.2730309 110.469726,22.6048237 109.981145,22.1018721 C109.420713,21.5127003 108.45792,21.0384888 107.092765,20.6792376 C106.072492,20.4062068 105.418655,20.169101 105.131254,19.9679204 C104.829483,19.7667397 104.671413,19.4937089 104.657043,19.1488278 C104.657043,18.4303255 105.174364,18.0710743 106.209008,18.0710743 C106.654479,18.0710743 107.139468,18.1968122 107.663975,18.448288 C108.188481,18.6997638 108.651915,19.0123123 109.054277,19.3859335 L109.054277,19.3859335 L110.649352,17.639973 C110.11766,17.0939112 109.456638,16.6628099 108.666285,16.3466689 C107.875933,16.0305278 107.035285,15.8724573 106.144342,15.8724573 C105.36836,15.8724573 104.649858,16.0161578 103.988836,16.3035587 C103.327813,16.5909596 102.796122,16.9897284 102.39376,17.499865 C101.991399,18.0100016 101.790219,18.602766 101.790219,19.2781582 C101.790219,20.1259909 102.056064,20.8373081 102.587756,21.41211 C103.191298,22.058762 104.218756,22.5688986 105.670131,22.9425198 C106.647294,23.2011806 107.265206,23.4167313 107.523867,23.5891719 C107.782528,23.7759825 107.911858,24.0274583 107.911858,24.3435993 C107.911858,24.7028504 107.775343,24.9830663 107.502312,25.1842469 C107.229281,25.3854276 106.87003,25.4860179 106.424558,25.4860179 C105.864127,25.4860179 105.31088,25.3818351 104.764818,25.1734694 C104.218756,24.9651037 103.730175,24.6238152 103.299073,24.1496037 L103.299073,24.1496037 L101.445337,25.7231237 C101.948289,26.3554057 102.609311,26.8439872 103.428404,27.1888683 C104.247496,27.5337494 105.181549,27.70619 106.230563,27.70619 Z M116.857211,27.70619 C117.590084,27.70619 118.276253,27.5409344 118.915721,27.2104234 C119.555188,26.8799123 120.068917,26.4416259 120.456908,25.8955642 L120.456908,25.8955642 L120.521573,27.4906393 L123.323732,27.4906393 L123.323732,16.1095631 L120.392243,16.1095631 L120.392243,22.9209647 C120.392243,23.5963569 120.165914,24.1496037 119.713258,24.580705 C119.260602,25.0118064 118.689392,25.2273571 117.99963,25.2273571 C117.309868,25.2273571 116.767399,24.9938438 116.372222,24.5268174 C115.977046,24.0597909 115.779458,23.4167313 115.779458,22.5976387 L115.779458,22.5976387 L115.779458,16.1095631 L112.847969,16.1095631 L112.847969,23.1365154 C112.847969,24.55915 113.203627,25.676421 113.914945,26.4883286 C114.626262,27.3002362 115.607017,27.70619 116.857211,27.70619 Z M129.359151,27.4906393 L129.359151,21.5414404 C129.359151,20.808568 129.599849,20.2014336 130.081246,19.7200371 C130.562643,19.2386405 131.155407,18.9979423 131.859539,18.9979423 C132.10383,18.9979423 132.348121,19.0266824 132.592411,19.0841626 C132.836702,19.1416427 133.037883,19.213493 133.195953,19.2997132 L133.195953,19.2997132 L133.993491,16.066453 C133.83542,16.0089728 133.645017,15.9622701 133.422282,15.926345 C133.199546,15.8904199 132.958848,15.8724573 132.700187,15.8724573 C132.024795,15.8724573 131.381735,16.0700455 130.771008,16.4652217 C130.160281,16.860398 129.668107,17.3669421 129.294486,17.9848541 L129.294486,17.9848541 L129.251376,16.1095631 L126.406107,16.1095631 L126.406107,27.4906393 L129.359151,27.4906393 Z M140.912668,32.448305 C142.795144,32.448305 144.271666,31.9453534 145.342235,30.9394502 C146.412803,29.933547 146.948087,28.5037275 146.948087,26.6499916 L146.948087,26.6499916 L146.948087,16.1095631 L144.124373,16.1095631 L144.081263,17.4459773 C143.693272,17.014876 143.172358,16.6448473 142.518521,16.3358913 C141.864683,16.0269353 141.156959,15.8724573 140.395346,15.8724573 C139.375073,15.8724573 138.45539,16.1239331 137.636298,16.6268847 C136.817205,17.1298363 136.174145,17.8267836 135.707119,18.7177264 C135.240092,19.6086692 135.006579,20.6217574 135.006579,21.756991 C135.006579,22.8778546 135.243685,23.8729803 135.717896,24.742368 C136.192108,25.6117558 136.842352,26.294333 137.66863,26.7900995 C138.494908,27.2858661 139.432553,27.5337494 140.481567,27.5337494 C141.185699,27.5337494 141.857498,27.3792714 142.496965,27.0703154 C143.136432,26.7613595 143.635792,26.3769607 143.995043,25.9171193 L143.995043,25.9171193 L143.995043,26.8008771 C143.995043,28.8989038 142.881364,29.9479171 140.654007,29.9479171 C140.021725,29.9479171 139.400221,29.8545118 138.789494,29.6677012 C138.178767,29.4808906 137.650668,29.2222298 137.205196,28.8917187 L137.205196,28.8917187 L136.170553,31.0256705 C136.716615,31.4424018 137.424339,31.7836904 138.293727,32.0495363 C139.163115,32.3153821 140.036095,32.448305 140.912668,32.448305 Z M140.998888,25.1195817 C140.093575,25.1195817 139.35711,24.8106258 138.789494,24.1927138 C138.221877,23.5748018 137.938068,22.7700793 137.938068,21.7785461 C137.938068,20.787013 138.221877,19.9751054 138.789494,19.3428234 C139.35711,18.7105414 140.093575,18.3944004 140.998888,18.3944004 C141.918571,18.3944004 142.665813,18.7069489 143.240615,19.3320458 C143.815417,19.9571428 144.102818,20.7726429 144.102818,21.7785461 C144.102818,22.7700793 143.81901,23.5748018 143.251393,24.1927138 C142.683776,24.8106258 141.932941,25.1195817 140.998888,25.1195817 Z M155.376119,27.70619 C156.166471,27.70619 156.960416,27.558897 157.757954,27.2643111 C158.555492,26.9697251 159.263216,26.5494013 159.881128,26.0033395 L159.881128,26.0033395 L158.458494,24.0202732 C157.969912,24.4226345 157.513663,24.7028504 157.089747,24.8609209 C156.665831,25.0189914 156.195212,25.0980267 155.67789,25.0980267 C154.715097,25.0980267 153.921152,24.8609209 153.296055,24.3867094 C152.670958,23.9124979 152.279374,23.2658458 152.121304,22.4467532 L152.121304,22.4467532 L160.31223,22.4467532 L160.333785,21.5198853 C160.362525,20.4277618 160.150567,19.4577837 159.69791,18.609951 C159.245254,17.7621184 158.612972,17.0903187 157.801064,16.5945521 C156.989157,16.0987856 156.073066,15.8509023 155.052793,15.8509023 C153.917559,15.8509023 152.915249,16.1095631 152.045861,16.6268847 C151.176473,17.1442064 150.493896,17.8519311 149.998129,18.750059 C149.502363,19.6481868 149.254479,20.6864226 149.254479,21.8647664 C149.254479,23 149.509548,24.0059032 150.019684,24.882476 C150.529821,25.7590488 151.244731,26.448811 152.164414,26.9517626 C153.084097,27.4547142 154.154665,27.70619 155.376119,27.70619 Z M157.531626,20.5930173 L152.142859,20.5930173 C152.47337,19.1272727 153.450533,18.3944004 155.074348,18.3944004 C155.73537,18.3944004 156.299394,18.5919885 156.766421,18.9871647 C157.233447,19.382341 157.488516,19.8888851 157.531626,20.5067971 L157.531626,20.5067971 L157.531626,20.5930173 Z" fill-rule="nonzero"></path></g></g></g></symbol><symbol id="users-active" xmlns="http://www.w3.org/2000/svg" viewBox="0 0 24 24"><path fill-rule="evenodd" d="M17.1939453 10.7757812C20.1574245 10.7757812 22.5734844 13.1195613 22.6895781 16.0545741L22.6939453 16.2757812 22.6939453 17.7757812 13.2047636 17.7749144C13.0103424 16.6852121 12.5443682 15.6895766 11.8793252 14.8605866 12.5018744 12.5090453 14.6454971 10.7757812 17.1939453 10.7757812zM17.1939453 3.57578125C18.906028 3.57578125 20.2939453 4.96369853 20.2939453 6.67578125 20.2939453 8.38786397 18.906028 9.77578125 17.1939453 9.77578125 15.4818626 9.77578125 14.0939453 8.38786397 14.0939453 6.67578125 14.0939453 4.96369853 15.4818626 3.57578125 17.1939453 3.57578125zM6.80605469 13.4242187C9.84362081 13.4242187 12.3060547 15.8866526 12.3060547 18.9242187L12.3060547 18.9242187 12.3060547 20.4242187 1.30605469 20.4242187 1.30605469 18.9242187C1.30605469 15.8866526 3.76848856 13.4242187 6.80605469 13.4242187zM6.80605469 6.22421875C8.51813741 6.22421875 9.90605469 7.61213603 9.90605469 9.32421875 9.90605469 11.0363015 8.51813741 12.4242187 6.80605469 12.4242187 5.09397196 12.4242187 3.70605469 11.0363015 3.70605469 9.32421875 3.70605469 7.61213603 5.09397196 6.22421875 6.80605469 6.22421875z"></path></symbol><symbol id="user-placeholder" xmlns="http://www.w3.org/2000/svg" viewBox="0 0 40 40"><g fill-rule="evenodd"><circle cx="20.063" cy="19.934" r="18.934" stroke-width="2"></circle><path d="M24.5633953,21.5 C28.9816732,21.5 32.5633953,25.081722 32.5633953,29.5 L32.5633934,35.5138036 C29.1539734,38.2391622 24.8303093,39.8686679 20.1260536,39.8686679 C15.3635061,39.8686679 10.9910405,38.1985286 7.56239438,35.4119875 L7.56339525,29.5 C7.56339525,25.081722 11.1451173,21.5 15.5633953,21.5 L24.5633953,21.5 Z"></path><circle cx="20.063" cy="12.858" r="7.142"></circle></g></symbol><symbol id="view" xmlns="http://www.w3.org/2000/svg" viewBox="0 0 20 20"><g transform="translate(.5 4)"><path d="M9.5,-0.75 C6.04505589,-0.75 2.91199747,1.0131574 0.128682837,4.47490745 L-0.131349215,4.80452992 C-0.623495508,5.44063999 -0.623496688,6.32118658 -0.135692195,6.95174195 C2.71378313,10.6350864 5.93466948,12.5119048 9.5,12.5119048 C12.9549441,12.5119048 16.0880025,10.7487474 18.8713172,7.28699731 L19.1313492,6.95737485 C19.6234955,6.32126478 19.6234967,5.44071818 19.1356922,4.81016282 C16.2862169,1.1268184 13.0653305,-0.75 9.5,-0.75 Z M9.5,0.75 C12.556359,0.75 15.3637941,2.38589932 17.9492721,5.72799032 C18.0189691,5.81808349 18.018969,5.94389517 17.9492717,6.03398815 L17.6979447,6.3525735 C15.1846057,9.47848888 12.4597885,11.0119048 9.5,11.0119048 C6.44364095,11.0119048 3.63620588,9.37600545 1.05072791,6.03391444 C0.981030859,5.94382127 0.981031027,5.81800959 1.05072832,5.72791661 L1.30205534,5.40933126 C3.81539434,2.28341588 6.5402115,0.75 9.5,0.75 Z"></path><path d="M9.5,1.98593285 C7.34884011,1.98593285 5.60498047,3.72979249 5.60498047,5.88095238 C5.60498047,8.03211227 7.34884011,9.77597191 9.5,9.77597191 C11.6511599,9.77597191 13.3950195,8.03211227 13.3950195,5.88095238 C13.3950195,3.72979249 11.6511599,1.98593285 9.5,1.98593285 Z M9.5,3.48593285 C10.8227328,3.48593285 11.8950195,4.55821962 11.8950195,5.88095238 C11.8950195,7.20368514 10.8227328,8.27597191 9.5,8.27597191 C8.17726724,8.27597191 7.10498047,7.20368514 7.10498047,5.88095238 C7.10498047,4.55821962 8.17726724,3.48593285 9.5,3.48593285 Z"></path></g></symbol><symbol id="users" xmlns="http://www.w3.org/2000/svg" viewBox="0 0 24 24"><path d="M17.1939453,2.45078125 C19.5273484,2.45078125 21.4189453,4.34237818 21.4189453,6.67578125 C21.4189453,8.09647191 20.7177353,9.35338619 19.6425313,10.119308 C22.0896366,11.0921344 23.8189453,13.482007 23.8189453,16.2757813 L23.8189453,18.2757812 C23.8189453,18.6209592 23.5391233,18.9007813 23.1939453,18.9007813 L13.4310152,18.9011116 C13.4310415,18.9088109 13.4310547,18.9165133 13.4310547,18.9242188 L13.4310547,20.9242188 C13.4310547,21.2693967 13.1512327,21.5492188 12.8060547,21.5492188 L0.806054688,21.5492188 C0.460876719,21.5492188 0.181054688,21.2693967 0.181054688,20.9242188 L0.181054688,18.9242188 C0.181054688,16.1308261 1.90989102,13.7412248 4.35595239,12.7670261 C3.28183657,12.0010561 2.58105469,10.7444756 2.58105469,9.32421875 C2.58105469,6.99081568 4.47265162,5.09921875 6.80605469,5.09921875 C9.13945776,5.09921875 11.0310547,6.99081568 11.0310547,9.32421875 C11.0310547,10.7444756 10.3302728,12.0010561 9.25562547,12.7670438 C9.90662339,13.0261476 10.5068458,13.385556 11.0372116,13.8261879 C11.7129869,12.1230591 13.0676829,10.7865685 14.7460669,10.118719 C13.6705836,9.35415375 12.9689453,8.09690571 12.9689453,6.67578125 C12.9689453,4.34237818 14.8605422,2.45078125 17.1939453,2.45078125 Z M6.80605469,13.5492188 C3.83752416,13.5492188 1.43105469,15.9556882 1.43105469,18.9242188 L1.43105469,20.2992188 L12.1810547,20.2992188 L12.1810547,18.9242188 C12.1810547,18.8139223 12.1777325,18.7044018 12.1711828,18.5957518 C12.1540822,18.5697622 12.1398114,18.5412554 12.1276741,18.5114415 L10.8598103,15.3945537 C9.87443085,14.2638152 8.42369424,13.5492188 6.80605469,13.5492188 Z M17.1939453,10.9007812 C14.758336,10.9007812 12.6531386,12.5340868 12.0148911,14.8318679 C12.6526736,15.6409505 13.1045555,16.6016845 13.3088136,17.650931 L22.5689453,17.6507813 L22.5689453,16.2757812 C22.5689453,13.3072507 20.1624758,10.9007812 17.1939453,10.9007812 Z M6.80605469,6.34921875 C5.16300756,6.34921875 3.83105469,7.68117162 3.83105469,9.32421875 C3.83105469,10.9672659 5.16300756,12.2992188 6.80605469,12.2992188 C8.44910182,12.2992188 9.78105469,10.9672659 9.78105469,9.32421875 C9.78105469,7.68117162 8.44910182,6.34921875 6.80605469,6.34921875 Z M17.1939453,3.70078125 C15.5508982,3.70078125 14.2189453,5.03273412 14.2189453,6.67578125 C14.2189453,8.31882838 15.5508982,9.65078125 17.1939453,9.65078125 C18.8369924,9.65078125 20.1689453,8.31882838 20.1689453,6.67578125 C20.1689453,5.03273412 18.8369924,3.70078125 17.1939453,3.70078125 Z"></path></symbol><symbol id="add" xmlns="http://www.w3.org/2000/svg" viewBox="0 0 12 12"><path d="M6,0 C6.39620428,0 6.72364274,0.294421442 6.7754644,0.676413331 L6.7826087,0.782608696 L6.782,5.217 L11.2173913,5.2173913 C11.6496142,5.2173913 12,5.56777715 12,6 C12,6.39620428 11.7055786,6.72364274 11.3235867,6.7754644 L11.2173913,6.7826087 L6.782,6.782 L6.7826087,11.2173913 C6.7826087,11.6496142 6.43222285,12 6,12 C5.60379572,12 5.27635726,11.7055786 5.2245356,11.3235867 L5.2173913,11.2173913 L5.217,6.782 L0.782608696,6.7826087 C0.350385848,6.7826087 0,6.43222285 0,6 C0,5.60379572 0.294421442,5.27635726 0.676413331,5.2245356 L0.782608696,5.2173913 L5.217,5.217 L5.2173913,0.782608696 C5.2173913,0.350385848 5.56777715,0 6,0 Z"></path></symbol><symbol id="chevron-down" xmlns="http://www.w3.org/2000/svg" viewBox="0 0 10 10"><path d="M0.646446609,2.64644661 C0.820012961,2.47288026 1.08943736,2.45359511 1.2843055,2.58859116 L1.35355339,2.64644661 L5,6.293 L8.64644661,2.64644661 C8.82001296,2.47288026 9.08943736,2.45359511 9.2843055,2.58859116 L9.35355339,2.64644661 C9.52711974,2.82001296 9.54640489,3.08943736 9.41140884,3.2843055 L9.35355339,3.35355339 L5.35355339,7.35355339 C5.17998704,7.52711974 4.91056264,7.54640489 4.7156945,7.41140884 L4.64644661,7.35355339 L0.646446609,3.35355339 C0.451184464,3.15829124 0.451184464,2.84170876 0.646446609,2.64644661 Z"></path></symbol><symbol id="campaigns" xmlns="http://www.w3.org/2000/svg" viewBox="0 0 24 24"><path d="M8.91361421,21.9650246 C9.10549937,22.5559722 8.78199536,23.1905835 8.19104777,23.3824687 C8.07883497,23.418905 7.96158911,23.4374634 7.84360895,23.4374634 L6.29838439,23.4374634 C5.59423993,23.4374634 4.97021318,22.9839606 4.75279033,22.3142243 L1.96765084,13.7372231 L1.76565084,13.737339 C0.868188118,13.737339 0.140650837,13.0098017 0.140650837,12.112339 L0.140650837,9.27820334 C0.140650837,8.38074062 0.868188118,7.65320334 1.76565084,7.65320334 L6.62265084,7.65222311 L16.5707508,1.16792645 C17.0565397,0.851237256 17.6960934,0.95806816 18.0550797,1.39689584 L18.1275526,1.49597857 L18.1922902,1.60910874 C18.269529,1.76430623 18.3101257,1.93582375 18.3101257,2.1103534 L18.3101257,19.2801889 C18.3101257,19.9015093 17.806446,20.4051889 17.1851257,20.4051889 C16.9669636,20.4051889 16.753508,20.3417566 16.5707508,20.2226159 L6.62265084,13.7372231 L6.24165084,13.7372231 L8.91361421,21.9650246 Z M5.94170884,21.9282544 C5.99188335,22.0828089 6.13588952,22.1874634 6.29838439,22.1874634 L7.67159591,22.1874634 L4.92777643,13.737339 L3.28261423,13.737339 L5.94170884,21.9282544 Z M17.0601257,2.3410576 L7.43332042,8.61684044 L7.43332042,12.7737019 L17.0601257,19.0494847 L17.0601257,2.3410576 Z M21.0832724,14.0223062 L22.9168134,15.8558471 C23.160891,16.0999248 23.160891,16.4956529 22.9168134,16.7397306 C22.6727357,16.9838083 22.2770076,16.9838083 22.0329299,16.7397306 L20.1993889,14.9061896 C19.9553112,14.662112 19.9553112,14.2663838 20.1993889,14.0223062 C20.4434666,13.7782285 20.8391947,13.7782285 21.0832724,14.0223062 Z M6.18332042,8.90320334 L1.76565084,8.90320334 C1.55854406,8.90320334 1.39065084,9.07109656 1.39065084,9.27820334 L1.39065084,12.112339 C1.39065084,12.3194458 1.55854406,12.487339 1.76565084,12.487339 L6.18332042,12.487339 L6.18332042,8.90320334 Z M23.2343492,10.2168967 C23.5795271,10.2168967 23.8593492,10.4967188 23.8593492,10.8418967 C23.8593492,11.1870747 23.5795271,11.4668967 23.2343492,11.4668967 L23.2343492,11.4668967 L20.6413306,11.4668967 C20.2961527,11.4668967 20.0163306,11.1870747 20.0163306,10.8418967 C20.0163306,10.4967188 20.2961527,10.2168967 20.6413306,10.2168967 L20.6413306,10.2168967 Z M22.0329299,4.94406286 C22.2770076,4.69998518 22.6727357,4.69998518 22.9168134,4.94406286 C23.160891,5.18814054 23.160891,5.58386866 22.9168134,5.82794634 L22.9168134,5.82794634 L21.0832724,7.66148732 C20.8391947,7.905565 20.4434666,7.905565 20.1993889,7.66148732 C19.9553112,7.41740963 19.9553112,7.02168152 20.1993889,6.77760384 L20.1993889,6.77760384 Z"></path></symbol></svg>